<!--
Copyright 2023 ZORALab Enterprise <tech@zoralab.com>


Prestige Web Demo Proprietary License

Licensed under ZORALab Proprietary License (the “License”); you may ONLY use
this file except in compliance with the License. You may obtain a copy of the
License at:

        https://www.zoralab.com/docs/legal/zoralab-proprietary-license

All information contained herein is, and remains the property of ZORALab
Enterprise and its suppliers, if any. The intellectual and technical concepts
contained herein are proprietary to ZORALab Enterprise and its suppliers and
may be covered by Malaysia Patent Law, patents in process, and are protected by
trade secret or copyright law. Dissemination of this information or reproduction
of this material is strictly forbidden unless prior written permission is
obtained from ZORALab Enterprise.
-->
<svg width="1200" height="1200" version="1.1" viewBox="0 0 1200 1200" xmlns="http://www.w3.org/2000/svg">
 <g transform="translate(-2.1133 -9.3691)">
  <path d="m188.55 109.37c-1.2235 0-2.209 2.6257-2.209 5.8867v50.42c-28.102 4.9258-49.562 29.516-49.562 58.998 0 33.012 26.9 59.912 59.912 59.912 33.012 0 59.912-26.9 59.912-59.912 0-29.481-21.46-54.069-49.561-58.996v-50.422c0-3.261-0.9855-5.8867-2.209-5.8867zm8.1406 68.285c26.044 0 47.02 20.975 47.02 47.02 0 26.044-20.975 47.02-47.02 47.02-26.044 0-47.02-20.975-47.02-47.02 0-26.044 20.975-47.02 47.02-47.02zm117.46 27.213c-2.2221 0-4.1324 0.66667-5.7324 2-1.6 1.3333-2.4004 3.6447-2.4004 6.9336 0 3.2 0.80039 5.5114 2.4004 6.9336 1.6 1.4221 3.5103 2.1328 5.7324 2.1328 2.3111 0 4.2672-0.71067 5.8672-2.1328 1.6889-1.4222 2.5332-3.7336 2.5332-6.9336 0-3.2889-0.84432-5.6003-2.5332-6.9336-1.6-1.3333-3.5561-2-5.8672-2zm35.732 0c-2.2222 0-4.1324 0.66667-5.7324 2-1.5999 1.3333-2.4004 3.6447-2.4004 6.9336 0 3.2 0.80048 5.5114 2.4004 6.9336 1.6 1.4221 3.5102 2.1328 5.7324 2.1328 2.311 0 4.2673-0.71068 5.8672-2.1328 1.6889-1.4222 2.5332-3.7336 2.5332-6.9336 0-3.2889-0.84432-5.6003-2.5332-6.9336-1.5999-1.3333-3.5562-2-5.8672-2zm35.734 0c-2.2222 0-4.1345 0.66667-5.7344 2-1.6 1.3333-2.3984 3.6447-2.3984 6.9336 0 3.2 0.79844 5.5114 2.3984 6.9336 1.5999 1.4221 3.5122 2.1328 5.7344 2.1328 2.3111 0 4.2672-0.71068 5.8672-2.1328 1.6889-1.4222 2.5332-3.7336 2.5332-6.9336 0-3.2889-0.84432-5.6003-2.5332-6.9336-1.6-1.3333-3.5561-2-5.8672-2zm-199.27 81.223v59.605c-28.102 4.9258-49.562 29.516-49.562 58.998s21.461 54.072 49.562 58.998v69.746c-28.102 4.9258-49.562 29.516-49.562 58.998 0 29.482 21.461 54.072 49.562 58.998v66.256c-28.102 4.9258-49.562 29.516-49.562 58.998s21.461 54.072 49.562 58.998v73.701c-28.102 4.9257-49.562 29.516-49.562 58.998 0 29.482 21.461 54.072 49.562 58.998v76.098c0 3.261 0.98549 5.8886 2.209 5.8886h16.283c1.2235 0 2.209-2.6276 2.209-5.8886v-76.1c28.101-4.9268 49.561-29.515 49.561-58.996 0-29.481-21.46-54.069-49.561-58.996v-73.705c28.101-4.9266 49.561-29.515 49.561-58.996s-21.46-54.069-49.561-58.996v-66.26c28.101-4.9266 49.561-29.515 49.561-58.996 0-29.481-21.46-54.069-49.561-58.996v-69.75c28.101-4.9266 49.561-29.515 49.561-58.996s-21.46-54.069-49.561-58.996v-59.607a53.466 56.319 0 0 1-10.35 1.2012 53.466 56.319 0 0 1-10.352-1.2012zm337.4 64.82c-7.5554 0-13.645 1.9562-18.268 5.8672-4.6222 3.8222-7.9995 9.3772-10.133 16.666-2.0444 7.2888-3.0664 16.089-3.0664 26.4 0 15.378 2.533 27.422 7.5996 36.133 5.1554 8.6221 13.112 12.934 23.867 12.934 7.6444 0 13.778-1.9562 18.4-5.8672 4.6222-3.9111 7.9995-9.51 10.133-16.799 2.1332-7.3777 3.1992-16.178 3.1992-26.4 0-15.466-2.6208-27.467-7.8652-36-5.2443-8.6221-13.201-12.934-23.867-12.934zm112 0c-7.5554 0-13.645 1.9562-18.268 5.8672-4.6222 3.8222-7.9995 9.3772-10.133 16.666-2.0443 7.2888-3.0664 16.089-3.0664 26.4 0 15.378 2.533 27.422 7.5996 36.133 5.1554 8.6221 13.112 12.934 23.867 12.934 7.6444 0 13.778-1.9562 18.4-5.8672 4.6222-3.9111 7.9995-9.51 10.133-16.799 2.1332-7.3777 3.1992-16.178 3.1992-26.4 0-15.466-2.6229-27.467-7.8672-36-5.2444-8.6221-13.199-12.934-23.865-12.934zm-225.33 0.13281c-6.0444 0-11.51 1.1118-16.398 3.334-4.7999 2.1333-9.0675 4.7561-12.801 7.8672l6.2676 7.8652c3.6444-2.8444 7.1994-5.066 10.666-6.666 3.5556-1.6 7.6434-2.4004 12.266-2.4004 4.9777 0 9.0237 1.3793 12.135 4.1348 3.111 2.6667 4.666 6.6208 4.666 11.865 0 4.2666-0.84432 8.2228-2.5332 11.867-1.6889 3.5555-4.1779 7.2003-7.4668 10.934s-7.3329 7.9988-12.133 12.799l-24.934 25.201v9.7324h62.934v-10.666h-48.135v-0.53321l19.867-19.6c4.8889-4.7999 9.1564-9.2891 12.801-13.467 3.6444-4.2667 6.4888-8.5781 8.5332-12.934 2.0444-4.3555 3.0664-9.0222 3.0664-14 0-7.911-2.577-14.089-7.7324-18.533-5.1555-4.5333-12.18-6.8008-21.068-6.8008zm-213.72 6.6309c26.044 0 47.02 20.975 47.02 47.02s-20.975 47.021-47.02 47.021c-26.044 0-47.02-20.977-47.02-47.021 0-26.044 20.975-47.02 47.02-47.02zm327.05 3.2363c7.1111 0 12.177 3.2436 15.199 9.7324 3.1111 6.4888 4.668 16.224 4.668 29.201 0 13.155-1.5569 22.978-4.668 29.467-3.0221 6.3999-8.0881 9.5996-15.199 9.5996-7.1999 0-12.312-3.2456-15.334-9.7344-2.9333-6.4888-4.4004-16.265-4.4004-29.332 0-12.978 1.4671-22.712 4.4004-29.201 3.0222-6.4889 8.1341-9.7324 15.334-9.7324zm112 0c7.1111 0 12.177 3.2436 15.199 9.7324 3.1111 6.4888 4.668 16.224 4.668 29.201 0 13.155-1.5569 22.978-4.668 29.467-3.0221 6.3999-8.0881 9.5996-15.199 9.5996-7.1999 0-12.312-3.2456-15.334-9.7344-2.9333-6.4888-4.4004-16.266-4.4004-29.332 0-12.978 1.4671-22.712 4.4004-29.201 3.0222-6.4889 8.1341-9.7324 15.334-9.7324zm155.57 9.4355v27.6h-26.533v9.4668h26.533v27.467h9.5996v-27.467h26.533v-9.4668h-26.533v-27.6zm76.266 0v27.6h-26.533v9.4668h26.533v27.467h9.5996v-27.467h26.533v-9.4668h-26.533v-27.6zm76.268 0v27.6h-26.533v9.4668h26.533v27.467h9.5996v-27.467h26.533v-9.4668h-26.533v-27.6zm-637.83 5.7637 27.066 71.467h13.467l27.199-71.467h-12.533l-15.199 42.135c-0.62222 1.8667-1.3787 3.9984-2.2676 6.3984-0.8 2.4-1.5545 4.7114-2.2656 6.9336-0.62222 2.2222-1.1112 4.0885-1.4668 5.5996h-0.5332c-0.26667-1.5111-0.71177-3.3315-1.334-5.4648-0.62222-2.2222-1.3328-4.5336-2.1328-6.9336-0.8-2.3999-1.5565-4.5776-2.2676-6.5332l-15.199-42.135zm686.23 21.303v10.4h32.266v-10.4zm42.932 0v10.4h32.268v-10.4zm-567.43 34.031c-2.2221 0-4.1324 0.66667-5.7324 2-1.6 1.3333-2.4004 3.6448-2.4004 6.9336 0 3.2 0.80039 5.5114 2.4004 6.9336 1.6 1.4222 3.5103 2.1328 5.7324 2.1328 2.3111 0 4.2672-0.71059 5.8672-2.1328 1.6889-1.4222 2.5332-3.7336 2.5332-6.9336 0-3.2888-0.84432-5.6003-2.5332-6.9336-1.6-1.3333-3.5561-2-5.8672-2zm112 0c-2.2221 0-4.1344 0.66667-5.7344 2-1.6 1.3333-2.3984 3.6448-2.3984 6.9336 0 3.2 0.79845 5.5114 2.3984 6.9336 1.6 1.4222 3.5122 2.1328 5.7344 2.1328 2.3111 0 4.2672-0.71059 5.8672-2.1328 1.6889-1.4222 2.5332-3.7336 2.5332-6.9336 0-3.2888-0.84431-5.6003-2.5332-6.9336-1.6-1.3333-3.5561-2-5.8672-2zm56 109.23c-7.5554 0-13.645 1.9541-18.268 5.8652-4.6222 3.8221-7.9995 9.3792-10.133 16.668-2.0444 7.2889-3.0664 16.089-3.0664 26.4 0 15.378 2.533 27.422 7.5996 36.133 5.1554 8.6221 13.112 12.934 23.867 12.934 7.6444 0 13.778-1.9561 18.4-5.8672 4.6222-3.911 7.9995-9.5119 10.133-16.801 2.1332-7.3777 3.1992-16.176 3.1992-26.398 0-15.467-2.6228-27.467-7.8672-36-5.2444-8.6222-13.199-12.934-23.865-12.934zm-113.33 0.13281c-6.0444 0-11.512 1.1118-16.4 3.334-4.8 2.1333-9.0655 4.7542-12.799 7.8652l6.2656 7.8672c3.6444-2.8444 7.2014-5.066 10.668-6.666 3.5556-1.5999 7.6434-2.4004 12.266-2.4004 4.9777 0 9.0237 1.3773 12.135 4.1328 3.111 2.6666 4.666 6.6228 4.666 11.867 0 4.2666-0.84432 8.2228-2.5332 11.867-1.6889 3.5555-4.1779 7.2003-7.4668 10.934-3.2889 3.7332-7.3329 7.9989-12.133 12.799l-24.934 25.199v9.7344h62.934v-10.666h-48.135v-0.5332l19.867-19.602c4.8889-4.8 9.1564-9.289 12.801-13.467 3.6444-4.2666 6.4888-8.5762 8.5332-12.932 2.0444-4.3555 3.0664-9.0223 3.0664-14 0-7.911-2.5789-14.089-7.7344-18.533-5.1555-4.5333-12.178-6.8008-21.066-6.8008zm-111.07 1.334-25.732 20 6.1328 7.8652 10.133-8.2656c1.7777-1.5111 3.2448-2.7566 4.4004-3.7344 1.1556-0.97777 2.445-2.1774 3.8672-3.5996-0.17778 2.4889-0.3115 4.8901-0.40039 7.2012-0.0889 2.311-0.13281 5.377-0.13281 9.1992v66.533h11.467v-95.199zm-214.65 3.2793c26.044 0 47.02 20.975 47.02 47.02 0 26.044-20.975 47.02-47.02 47.02-26.044 0-47.02-20.975-47.02-47.02 0-26.044 20.975-47.02 47.02-47.02zm439.05 5.2539c7.1111 0 12.177 3.2436 15.199 9.7324 3.1111 6.4889 4.668 16.224 4.668 29.201 0 13.155-1.5569 22.976-4.668 29.465-3.0221 6.3999-8.0881 9.6016-15.199 9.6016-7.1999 0-12.312-3.2456-15.334-9.7344-2.9333-6.4889-4.4004-16.266-4.4004-29.332 0-12.978 1.4671-22.712 4.4004-29.201 3.0222-6.4888 8.1341-9.7324 15.334-9.7324zm155.57 4.2676v27.6h-26.533v9.4668h26.533v27.467h9.5996v-27.467h26.533v-9.4668h-26.533v-27.6zm119.2 0v27.6h-26.533v9.4668h26.533v27.467h9.5996v-27.467h26.533v-9.4668h-26.533v-27.6zm76.268 0v27.6h-26.533v9.4668h26.533v27.467h9.5996v-27.467h26.533v-9.4668h-26.533v-27.6zm-680.77 10.932 27.066 71.467h13.467l27.199-71.467h-12.533l-15.199 42.133c-0.62222 1.8667-1.3787 4.0004-2.2676 6.4004-0.8 2.4-1.5545 4.7114-2.2656 6.9336-0.62222 2.2222-1.1112 4.0885-1.4668 5.5996h-0.5332c-0.26667-1.5111-0.71177-3.3335-1.334-5.4668-0.62222-2.2222-1.3328-4.5336-2.1328-6.9336-0.8-2.4-1.5565-4.5777-2.2676-6.5332l-15.199-42.133zm533.7 16.135v10.398h32.266v-10.398zm195.46 0v10.398h32.268v-10.398zm-567.43 39.199c-2.2222 0-4.1324 0.66673-5.7324 2-1.6 1.3333-2.4004 3.6447-2.4004 6.9336 0 3.2 0.80039 5.5094 2.4004 6.9316 1.6 1.4222 3.5103 2.1348 5.7324 2.1348 2.3111 1e-5 4.2672-0.71254 5.8672-2.1348 1.6889-1.4222 2.5332-3.7316 2.5332-6.9316 0-3.2889-0.84432-5.6003-2.5332-6.9336-1.6-1.3333-3.5561-2-5.8672-2zm112 0c-2.2221 0-4.1344 0.66675-5.7344 2-1.6 1.3333-2.3984 3.6447-2.3984 6.9336 0 3.2 0.79845 5.5094 2.3984 6.9316 1.6 1.4222 3.5122 2.1348 5.7344 2.1348 2.3111 1e-5 4.2672-0.71254 5.8672-2.1348 1.6889-1.4222 2.5332-3.7316 2.5332-6.9316 0-3.2889-0.84431-5.6003-2.5332-6.9336-1.6-1.3332-3.5561-2-5.8672-2zm56 105.6c-7.5554 0-13.645 1.9561-18.268 5.8672-4.6222 3.8221-7.9995 9.3772-10.133 16.666-2.0444 7.2888-3.0664 16.089-3.0664 26.4 0 15.378 2.533 27.422 7.5996 36.133 5.1555 8.6222 13.112 12.934 23.867 12.934 7.6444 0 13.778-1.9561 18.4-5.8672 4.6222-3.9111 7.9995-9.51 10.133-16.799 2.1332-7.3777 3.1992-16.178 3.1992-26.4 0-15.466-2.6228-27.467-7.8672-36-5.2444-8.6221-13.199-12.934-23.865-12.934zm-224.4 1.4668-25.732 20 6.1328 7.8672 10.133-8.2676c1.7777-1.5111 3.2448-2.7546 4.4004-3.7324 1.1556-0.97778 2.445-2.1774 3.8672-3.5996-0.17778 2.4889-0.3115 4.8881-0.40039 7.1992-0.0889 2.3111-0.13281 5.377-0.13281 9.1992v66.533h11.467v-95.199zm112 0-25.732 20 6.1328 7.8672 10.133-8.2676c1.7777-1.511 3.2448-2.7546 4.4004-3.7324 1.1556-0.97778 2.445-2.1774 3.8672-3.5996-0.17778 2.4889-0.3115 4.8881-0.40039 7.1992-0.0889 2.3111-0.13281 5.377-0.13281 9.1992v66.533h11.467v-95.199zm-326.65 1.3965c26.044 0 47.02 20.975 47.02 47.02s-20.975 47.02-47.02 47.02c-26.044 0-47.02-20.975-47.02-47.02 0-26.044 20.975-47.02 47.02-47.02zm439.05 7.1367c7.1111 0 12.177 3.2456 15.199 9.7344 3.1111 6.4889 4.668 16.222 4.668 29.199 0 13.155-1.5569 22.978-4.668 29.467-3.0221 6.3999-8.0881 9.5996-15.199 9.5996-7.1999 0-12.312-3.2436-15.334-9.7324-2.9333-6.4889-4.4004-16.267-4.4004-29.334 0-12.978 1.4671-22.71 4.4004-29.199 3.0222-6.4888 8.1341-9.7344 15.334-9.7344zm-329.73 15.201 27.066 71.465h13.467l27.199-71.465h-12.533l-15.199 42.133c-0.62222 1.8667-1.3787 4.0004-2.2676 6.4004-0.8 2.4-1.5545 4.7095-2.2656 6.9316-0.62222 2.2222-1.1112 4.0905-1.4668 5.6016h-0.5332c-0.26667-1.5111-0.71177-3.3335-1.334-5.4668-0.62222-2.2222-1.3328-4.5336-2.1328-6.9336-0.8-2.4-1.5565-4.5777-2.2676-6.5332l-15.199-42.133zm161.73 55.332c-2.2222 0-4.1324 0.66668-5.7324 2-1.6 1.3333-2.4004 3.6448-2.4004 6.9336 0 3.2 0.80039 5.5114 2.4004 6.9336 1.6 1.4222 3.5103 2.1328 5.7324 2.1328 2.3111 0 4.2672-0.71059 5.8672-2.1328 1.6889-1.4222 2.5332-3.7336 2.5332-6.9336 0-3.2888-0.84432-5.6003-2.5332-6.9336-1.6-1.3333-3.5561-2-5.8672-2zm112 0c-2.2221 0-4.1344 0.66668-5.7344 2-1.6 1.3333-2.3984 3.6448-2.3984 6.9336 0 3.2 0.79845 5.5114 2.3984 6.9336 1.6 1.4222 3.5122 2.1328 5.7344 2.1328 2.3111 0 4.2672-0.71059 5.8672-2.1328 1.6889-1.4222 2.5332-3.7336 2.5332-6.9336 0-3.2888-0.84431-5.6003-2.5332-6.9336-1.6-1.3333-3.5561-2-5.8672-2zm-383.05 114.03c26.044 0 47.02 20.977 47.02 47.021 0 26.044-20.975 47.02-47.02 47.02-26.044 0-47.02-20.975-47.02-47.02 0-26.044 20.975-47.021 47.02-47.021zm117.46 37.445c-2.2222 0-4.1324 0.66673-5.7324 2-1.6 1.3333-2.4004 3.6447-2.4004 6.9336 0 3.1999 0.80039 5.5114 2.4004 6.9336 1.6 1.4222 3.5103 2.1328 5.7324 2.1328 2.3111 0 4.2672-0.71059 5.8672-2.1328 1.6889-1.4222 2.5332-3.7337 2.5332-6.9336 0-3.2889-0.84432-5.6003-2.5332-6.9336-1.6-1.3333-3.5561-2-5.8672-2zm35.732 0c-2.2222 0-4.1324 0.66674-5.7324 2-1.5999 1.3333-2.4004 3.6447-2.4004 6.9336 0 3.1999 0.80047 5.5114 2.4004 6.9336 1.6 1.4222 3.5102 2.1328 5.7324 2.1328 2.311 0 4.2673-0.71059 5.8672-2.1328 1.6889-1.4222 2.5332-3.7337 2.5332-6.9336 0-3.2889-0.84432-5.6003-2.5332-6.9336-1.5999-1.3333-3.5562-2-5.8672-2zm35.734 0c-2.2222 0-4.1344 0.66674-5.7344 2-1.6 1.3333-2.3984 3.6447-2.3984 6.9336 0 3.1999 0.79844 5.5114 2.3984 6.9336 1.5999 1.4222 3.5122 2.1328 5.7344 2.1328 2.3111 0 4.2672-0.71059 5.8672-2.1328 1.6889-1.4222 2.5332-3.7337 2.5332-6.9336 0-3.2889-0.84432-5.6003-2.5332-6.9336-1.6-1.3333-3.5561-2-5.8672-2z" style="-inkscape-stroke:none;color:#000000;stroke-linecap:round;stroke-linejoin:round"/>
  <path d="m791.31 748.15v27.6h-26.533v9.4668h26.533v27.467h9.5996v-27.467h26.533v-9.4668h-26.533v-27.6zm76.266 0v27.6h-26.533v9.4668h26.533v27.467h9.5996v-27.467h26.533v-9.4668h-26.533v-27.6zm76.268 0v27.6h-26.533v9.4668h26.533v27.467h9.5996v-27.467h26.533v-9.4668h-26.533v-27.6zm76.266 0v27.6h-26.533v9.4668h26.533v27.467h9.5996v-27.467h26.533v-9.4668h-26.533v-27.6z" style="font-variant-ligatures:none"/>
 </g>
</svg>
