<!--
Copyright 2023 ZORALab Enterprise <tech@zoralab.com>


Prestige Web Demo Proprietary License

Licensed under ZORALab Proprietary License (the “License”); you may ONLY use
this file except in compliance with the License. You may obtain a copy of the
License at:

        https://www.zoralab.com/docs/legal/zoralab-proprietary-license

All information contained herein is, and remains the property of ZORALab
Enterprise and its suppliers, if any. The intellectual and technical concepts
contained herein are proprietary to ZORALab Enterprise and its suppliers and
may be covered by Malaysia Patent Law, patents in process, and are protected by
trade secret or copyright law. Dissemination of this information or reproduction
of this material is strictly forbidden unless prior written permission is
obtained from ZORALab Enterprise.
-->
<svg width="1200" height="1200" version="1.1" viewBox="0 0 1200 1200" xmlns="http://www.w3.org/2000/svg">
 <g transform="matrix(4.5459 0 0 4.5459 1428.8 969.75)">
  <path d="m-182.31-191.33c-60.682 0-109.99 49.309-109.99 109.99 0 16.479 3.6479 32.113 10.162 46.155-6.2295 5.74-10.162 13.937-10.162 23.057 0 17.311 14.079 31.39 31.39 31.39 7.7026 0 14.756-2.7987 20.223-7.4182 16.927 10.637 36.937 16.805 58.376 16.805 23.918 0 46.061-7.6725 64.121-20.673 4.399 2.388 9.4351 3.7461 14.783 3.7461 17.142 0 31.084-13.942 31.084-31.084 0-7.9844-3.0508-15.251-8.015-20.761 5.1635-12.734 8.015-26.645 8.015-41.217 0-60.682-49.309-109.99-109.99-109.99zm0 10.788c1.4504 0 3.9124 1.2714 6.919 5.8114s6.0594 11.772 8.6139 20.891c5e-3 0.0195 0.0104 0.0406 0.0159 0.0601h-4.1018c-0.97871-10.407-7.1046-19.326-15.8-24.2 1.8357-1.9168 3.3429-2.5628 4.3532-2.5628zm-19.502 2.9121c14.818 0 26.784 11.966 26.784 26.784 0 14.818-11.966 26.784-26.784 26.784-14.818 0-26.784-11.966-26.784-26.784 0-14.818 11.966-26.784 26.784-26.784zm37.697 0.82621c10.257 4.3132 19.614 12.224 27.417 23.025h-18.932c-0.25986-0.99946-0.5207-1.996-0.7914-2.9624-2.1978-7.8461-4.7223-14.585-7.6941-20.062zm-65.597 8.232c-2.899 3.15-5.6253 6.5681-8.1534 10.224-1.0251 1.4825-2.0157 3.0092-2.9792 4.5688h-9.3323c6.1404-5.7543 13.011-10.739 20.465-14.793zm94.803 0c7.4538 4.0535 14.325 9.0384 20.465 14.793h-9.3323c-0.96352-1.5597-1.9544-3.0863-2.9796-4.5688-2.5278-3.6557-5.254-7.0738-8.1529-10.224zm-125.18 25.546h13.383c-8.0969 16.93-12.895 37.138-13.274 58.891-6.1e-4 0.03537-2.9e-4 0.07073-8.6e-4 0.10612h-21.532c0.59026-22.286 8.5038-42.721 21.423-58.997zm25.45 0h2.7502c2.3772 9.1296 8.7994 16.622 17.241 20.464-1.4092 11.929-2.2233 24.905-2.3175 38.533h-0.86401l-13.846-7.2288c-0.20717-7.2481-6.1863-13.105-13.483-13.105-0.78343 0-1.5411 0.10294-2.2887 0.23244 2.3186-14.47 6.7798-27.698 12.808-38.896zm62.904 0h7.5789c1.3167 6.2636 2.4285 13.156 3.325 20.49-5.7862 4.19-9.5738 10.981-9.5738 18.651 0 4.6823 1.4099 9.0415 3.8217 12.682l-3.4638 2.4103 1.4028 1.8174a31.634 31.634 0 0 0-18.376-8.6307l0.20494-0.02062-2.6462-26.689c8.6835-3.774 15.303-11.404 17.726-20.711zm18.557 0h23.19c8.7253 16.209 14.178 36.667 14.584 58.997h-20.346c6.8172-4.0061 11.419-11.398 11.419-19.856 0-12.697-10.339-23.037-23.037-23.037-1.0657 0-2.1069 0.0983-3.1347 0.23931-0.75795-5.7239-1.6464-11.202-2.6754-16.344zm35.257 0h13.383c12.92 16.277 20.834 36.712 21.424 58.997h-21.532c-0.36494-21.794-5.1638-42.04-13.274-58.997zm-29.447 20.418c10.366 0 18.723 8.3574 18.723 18.723 0 10.366-8.3569 18.723-18.723 18.723-10.366 0-18.723-8.3569-18.723-18.723 0-10.366 8.3569-18.723 18.723-18.723zm-57.181 6.8129 5.2593 21.224a31.634 31.634 0 0 0-6.7721 2.8584c0.23653-8.3721 0.75258-16.442 1.5128-24.082zm-40.609 15.746c5.0952 0 9.1794 4.0842 9.1794 9.1793 0 5.0952-4.0842 9.1793-9.1794 9.1793-5.0952 0-9.1789-4.0842-9.1789-9.1793 0-5.0952 4.0837-9.1793 9.1789-9.1793zm83.974 14.583c0.71235 0.5358 1.4876 0.98616 2.2604 1.438h-4.1684zm-120.04 12.192h21.425c0.53622 10.58 2.128 20.747 4.6281 30.304-1.8641-0.34757-3.7793-0.54908-5.7431-0.54908-4.3008 0-8.4002 0.87248-12.136 2.4442-4.4248-9.9722-7.2612-20.81-8.1744-32.199zm32.198 0h28.352a31.634 31.634 0 0 0-1.5252 9.096 31.634 31.634 0 0 0 2.1156 11.15l-0.043-0.06574-22.746 13.818c-3.3324-10.449-5.4879-21.906-6.1529-33.998zm88.582 0h1.9446c-0.1137 5.1905-0.33789 10.269-0.65865 15.21l-0.40515-0.18732a31.634 31.634 0 0 0 0.632-5.9269 31.634 31.634 0 0 0-1.5128-9.096zm12.705 0h32.134c-0.53178 9.6683-2.028 18.924-4.3029 27.592-1.6724 1.0528-3.243 2.2533-4.6818 3.5953l-24.117-11.146c0.49414-6.4626 0.82363-13.159 0.96756-20.041zm42.907 0h21.425c-0.73617 9.1806-2.7227 18.003-5.7817 26.303-4.2671-2.207-9.0957-3.4754-14.223-3.4754-1.4918 0-2.9481 0.14018-4.3841 0.34457 1.5447-7.4334 2.5583-15.183 2.9633-23.172zm1.4208 27.141c14.811 0 26.771 11.96 26.771 26.771 0 14.811-11.961 26.771-26.771 26.771-14.811 0-26.77-11.96-26.77-26.771 0-14.811 11.96-26.771 26.77-26.771zm-62.695 1.933-0.10011 0.23072 5.4105 3.5991c-1.0445 8.5901-2.3984 16.549-4.0086 23.65h-2.3987c-3.7461-5.9543-10.336-9.9504-17.854-10.019l-1.2602-6.1083a31.634 31.634 0 0 0 20.211-11.352zm-48.513 4.4137c0.98232 8.2441 2.2518 15.981 3.774 23.067h-19.053c-0.36756-2.4749-0.99066-4.8672-1.9003-7.1209zm-46.295 0.58045c14.98 0 27.077 12.097 27.077 27.077 0 14.98-12.097 27.077-27.077 27.077-14.98 0-27.077-12.097-27.077-27.077 0-14.98 12.097-27.077 27.077-27.077zm57.711 3.6992a31.634 31.634 0 0 0 10.463 2.8073l0.10397 7.2747c-3.0326 1.1237-5.7406 2.9217-7.9476 5.206-0.98903-4.7719-1.8665-9.8894-2.6191-15.288zm52.4 1.783 16.497 10.973c-0.1213 1.1136-0.18818 2.2432-0.18818 3.3886 0 0.89182 0.0597 1.7693 0.13362 2.6423h-19.426c1.1428-5.3197 2.1399-11.012 2.9834-17.004zm-34.451 11.292c9.4231 0 17.016 7.5929 17.016 17.016 0 9.4231-7.5934 17.016-17.016 17.016s-17.016-7.5929-17.016-17.016c0-9.4231 7.5925-17.016 17.016-17.016zm-40.451 16.47h17.496c1e-3 0.00615 3e-3 0.012755 5e-3 0.018904 2.198 7.8472 4.7236 14.587 7.6958 20.065-9.3013-3.9112-17.862-10.783-25.196-20.084zm69.285 0h17.495c-7.334 9.3006-15.895 16.172-25.196 20.084 2.9723-5.4783 5.4977-12.218 7.6958-20.065 1e-3 -0.00615 3e-3 -0.012753 5e-3 -0.018904zm27.611 4.461c0.60742 0.86121 1.2593 1.686 1.9489 2.4799-2.6009 1.757-5.2826 3.4037-8.0532 4.9104 0.42375-0.46043 0.84608-0.92358 1.2623-1.3955 1.6802-1.905 3.292-3.91 4.8421-5.9948zm-104.17 3.6283c0.65839 0.80237 1.3234 1.5955 2.0034 2.3665 0.41614 0.47183 0.83775 0.93512 1.2614 1.3955-1.3701-0.7451-2.7111-1.5352-4.0395-2.3441 0.26995-0.46591 0.52836-0.93722 0.77464-1.4178zm55.938 12.137c-2.2522 2.7261-4.0968 3.5935-5.2709 3.5935-0.90365 0-2.2059-0.51573-3.7822-1.9867 0.282 0.01113 0.55873 0.04296 0.84339 0.04296 2.9078 0 5.6805-0.58988 8.2096-1.6498z" style="font-feature-settings:normal;font-variant-alternates:normal;font-variant-caps:normal;font-variant-east-asian:normal;font-variant-ligatures:normal;font-variant-numeric:normal;font-variant-position:normal;font-variation-settings:normal;inline-size:0;isolation:auto;mix-blend-mode:normal;shape-margin:0;shape-padding:0;shape-rendering:auto;stroke-width:2.0324;text-decoration-color:#000000;text-decoration-line:none;text-decoration-style:solid;text-indent:0;text-orientation:mixed;text-transform:none;white-space:normal"/>
 </g>
</svg>
