<!--
Copyright 2023 ZORALab Enterprise <tech@zoralab.com>


Prestige Web Demo Proprietary License

Licensed under ZORALab Proprietary License (the “License”); you may ONLY use
this file except in compliance with the License. You may obtain a copy of the
License at:

        https://www.zoralab.com/docs/legal/zoralab-proprietary-license

All information contained herein is, and remains the property of ZORALab
Enterprise and its suppliers, if any. The intellectual and technical concepts
contained herein are proprietary to ZORALab Enterprise and its suppliers and
may be covered by Malaysia Patent Law, patents in process, and are protected by
trade secret or copyright law. Dissemination of this information or reproduction
of this material is strictly forbidden unless prior written permission is
obtained from ZORALab Enterprise.
-->
<svg width="1200" height="1200" version="1.1" viewBox="0 0 1200 1200" xmlns="http://www.w3.org/2000/svg">
 <g transform="translate(60.033 -43.366)">
  <path d="m244.57 278.74c-19.739-0.25282-39.36 4.3633-57.416 14.171h-0.34314l-2.3554 1.3593c-57.456 33.172-75.719 108.81-46.293 173.95l-88.106 50.867c-9.4917 5.4785-12.976 17.914-7.4576 27.468l0.51139 0.88619 184.56 288.18 2.2904 3.9662 0.29818 0.41645c0.28363 0.39362 0.60271 0.75196 0.8945 1.1377l4.7924 104.06v5.607c3.1374 31.015 26.143 55.972 57.321 57.132h461.6l0.39479 0.063a63.206 62.354 0 0 0 40.815-18.035c17.045-1.9455 33.066-10.889 43.308-25.849l0.23154-0.33816 1.6008-2.7735 195.58-302.69 0.4182-0.72294v-3e-3c5.7843-10.018 2.1317-23.055-7.8175-28.803l-92.228-53.25c29.85-66.096 12.76-142.43-43.015-178.82l0.015-0.41978-5.5537-3.2066c-19.69-11.368-41.313-16.569-63.031-16.295-44.749 0.56461-89.803 24.473-119.25 65.466l-40.756-23.531c-24.664-58.732-77.505-99.391-138.76-99.391l7e-3 -2e-3c-13.483 0-26.497 2.1458-38.959 5.8385l-13.751-26.835-0.39811-0.68962c-5.5138-9.5534-18.022-12.755-27.512-7.2794v2e-3l-87.937 50.773c-28.064-39.061-71.023-61.868-113.69-62.415zm0.18491 20.329c38.314 0.58652 77.624 22.434 101.88 60.98l5.2138 8.2788 104.39-60.271 8e-3 0.015 12.392 24.182c-54.015 25.032-92.648 83.87-95.298 153.32h-144.84a13.072 12.896 0 0 0-13.075 12.898v1.0311l13.858 300.94-168.8-263.57-0.14159-0.24654 104.56-60.371-4.5659-8.6537c-30.919-58.599-15.326-127.01 34.202-155.67l0.0933-0.055c15.496-8.9474 32.707-13.073 50.123-12.806zm-0.36647 12.387c-15.83-0.13511-31.517 3.6772-45.662 11.844l-0.0766 0.0434c-22.255 13.108-34.95 33.726-38.759 57.377s0.41802 50.267 9.6681 78.684l3.8829 11.929 168.1-97.054-5.547-8.9202c-21.268-34.201-56.78-53.605-91.605-53.903zm0.15825 20.367c24.643 0.28922 50.269 12.661 68.12 35.652l-127.36 73.534c-5.8872-21.66-7.9084-41.132-5.3438-57.056 3.0324-18.829 11.565-32.806 28.964-43.068 10.838-6.2483 23.098-9.2087 35.619-9.0618zm282.27 27.76h0.01c26.025 3e-3 49.939 10.501 68.913 28.038-4.3432 1.6555-8.1973 4.6369-10.674 8.9285l-0.53637 0.92783-29.962 57.892-47.944-93.564c6.5562-1.404 13.29-2.2214 20.194-2.2221zm-39.74 8.6536 56.013 109.31-4.1578 8.0307h-123.62c1.7549-53.916 31.055-99.147 71.763-117.34zm338.31 29.884c18.229-0.27417 36.243 4.0472 52.475 13.396l0.0916 0.0533c52.011 30.027 68.378 101.87 35.957 163.33l-4.7874 9.0751 109.48 63.212-0.01 0.0117-195.58 302.69-1.3476 2.3338c-2.3992 3.469-5.3434 6.3301-8.5487 8.7719a63.206 62.354 0 0 0 2.4037-10.564v-3.8063l20.289-404.98 62.746 36.227 5.0723-10.095c8.6426-17.198 11.941-44.777 7.7441-73.397-4.1965-28.62-16.937-58.693-45.116-73.439l-0.36647-0.19156-0.37813-0.16158c-15.143-6.488-30.949-9.3703-46.507-8.6903-34.226 1.496-67.244 20.235-89.325 55.76l-5.8135 9.3533 14.835 8.5654h-58.415c-0.48138-12.611-2.2504-24.826-4.984-36.602l37.751 21.797 5.4654-8.6853c25.463-40.46 66.684-63.363 106.86-63.967zm-221.99 9.335 15.242 8.8002c11.676 19.844 18.859 43.617 19.699 69.323h-68.283l-3.5364-6.8996 36.728-70.965zm216.29 25.211c12.193-0.35775 24.673 2.1466 36.96 7.3394 19.636 10.44 30.045 32.973 33.637 57.469 2.6617 18.153 1.0054 37.101-2.0472 49.815l-51.221-29.574 0.92783-18.533v-0.70629a13.072 12.896 0 0 0-13.07-12.898h-43.523l-27.302-15.763c18.2-24.377 41.337-36.435 65.638-37.148z" style="-inkscape-stroke:none;color:#000000;stroke-width:.81318"/>
 </g>
</svg>
