<!--
Copyright 2023 ZORALab Enterprise <tech@zoralab.com>


Prestige Web Demo Proprietary License

Licensed under ZORALab Proprietary License (the “License”); you may ONLY use
this file except in compliance with the License. You may obtain a copy of the
License at:

        https://www.zoralab.com/docs/legal/zoralab-proprietary-license

All information contained herein is, and remains the property of ZORALab
Enterprise and its suppliers, if any. The intellectual and technical concepts
contained herein are proprietary to ZORALab Enterprise and its suppliers and
may be covered by Malaysia Patent Law, patents in process, and are protected by
trade secret or copyright law. Dissemination of this information or reproduction
of this material is strictly forbidden unless prior written permission is
obtained from ZORALab Enterprise.
-->
<svg width="1200" height="1200" version="1.1" viewBox="0 0 1200 1200" xmlns="http://www.w3.org/2000/svg">
 <g transform="matrix(3.7795 0 0 3.7795 159.15 472.5)">
  <path d="m122.69-92.511c-69.651 0-126.25 56.597-126.25 126.25 0 2.4355 0.090806 4.8492 0.22931 7.2503-15.921 18.588-16.71 46.549-0.63468 66.085 2.0738 2.5202 4.3413 4.7888 6.7601 6.8086l-11.746 16.697a78.92 78.92 0 0 0 19.922 14.301l14.058-19.985c0.0465-0.0662 0.08214-0.13633 0.1165-0.20664 3.687 0.77225 7.4504 1.141 11.217 1.0986 22.588 21.195 52.953 34.197 86.323 34.197 36.829 0 70.008-15.826 93.1-41.038a6.1729 6.1729 0 0 0 0.11122-0.087 6.1729 6.1729 0 0 0 1.0886-1.1571 6.1729 6.1729 0 0 0 0.18292-0.28835c19.758-22.287 31.764-51.597 31.764-83.676 0-69.651-56.598-126.25-126.25-126.25zm0 12.383c1.6648 0 4.4909 1.4594 7.9419 6.6704 3.451 5.211 6.9549 13.511 9.8871 23.979 6e-3 0.02262 0.0126 0.04638 0.019 0.06906h-35.695c6e-3 -0.02262 0.0127-0.0464 0.019-0.06906 2.9321-10.468 6.4361-18.769 9.8871-23.979 3.451-5.2101 6.2767-6.6704 7.9414-6.6704zm-20.882 4.2857c-3.4122 6.2885-6.311 14.025-8.8344 23.033-0.31158 1.1124-0.61552 2.2496-0.91459 3.4001h-21.725c8.9582-12.399 19.699-21.483 31.474-26.433zm41.764 0c11.775 4.9504 22.515 14.035 31.473 26.433h-21.725c-0.29906-1.1505-0.60247-2.2877-0.91406-3.4001-2.5233-9.0084-5.4221-16.745-8.8344-23.033zm-75.296 9.4569c-3.3258 3.6142-6.4517 7.5379-9.352 11.732-1.1767 1.7017-2.3142 3.4538-3.4201 5.244h-10.712c7.0464-6.6034 14.93-12.324 23.484-16.976zm108.83 5.27e-4c8.5531 4.652 16.437 10.372 23.483 16.976h-10.712c-1.1059-1.7902-2.2434-3.5424-3.4201-5.244-2.9-4.194-6.0259-8.1175-9.3515-11.732zm-143.69 29.319h15.361c-8.3592 17.478-13.633 38.009-14.93 60.128-8.6621 0.30738-17.299 2.7927-25.021 7.5423 0.68755-25.561 9.7696-48.999 24.59-67.67zm29.211 0h26.606c-3.8703 19.346-6.1572 42.588-6.3304 67.718h-20.197c-5.1434-3.1645-10.756-5.3572-16.555-6.5524 1.3223-23.072 7.3229-44.159 16.477-61.165zm39.217 0h41.686c3.9465 18.775 6.4085 42.243 6.593 67.718h-54.872c0.18446-25.474 2.6465-48.943 6.593-67.718zm54.297 0h26.605c10.015 18.605 16.274 42.087 16.74 67.718h-37.015c-0.17322-25.13-2.4596-48.372-6.3299-67.718zm40.456 0h15.361c14.829 18.682 23.914 42.138 24.591 67.718h-24.716c-6.8e-4 -0.04064 1.6e-4 -0.08168-5.3e-4 -0.1223-0.43478-24.968-5.9416-48.163-15.235-67.595zm-160.82 67.984c12.517 0.01496 24.924 5.4258 33.52 15.873 15.283 18.573 12.627 45.9-5.9462 61.183-18.573 15.283-45.899 12.627-61.182-5.9467-15.283-18.573-12.628-45.899 5.9456-61.182 8.1258-6.6863 17.927-9.9388 27.662-9.9271zm40.643 12.077h6.5724c0.08689 4.1597 0.24394 8.2456 0.45071 12.272-1.7238-4.305-4.0605-8.4379-7.0231-12.272zm18.925 0h54.691c-0.53864 24.615-3.2016 47.093-7.2413 64.913l-40.209 5.3e-4c-4.0398-17.82-6.7022-40.298-7.2408-64.914zm67.044 0h36.873c-1.3626 24.774-8.1357 47.268-18.401 64.913h-25.418c3.9595-18.435 6.4402-40.693 6.9461-64.913zm49.238 0h24.595c-1.9817 24.716-11.831 47.185-27.043 64.913h-14.247c9.5104-18.551 15.472-40.809 16.694-64.913zm-125.59 41.863c1.0597 8.1834 2.3665 15.909 3.9003 23.05h-15.213c5.788-6.7308 9.5856-14.697 11.312-23.05zm-13.151 35.398h20.081l0.0058 0.0211c2.5236 9.0096 5.4231 16.747 8.8359 23.036-10.677-4.489-20.504-12.38-28.923-23.057zm32.945 0h33.718c-2.7192 8.9104-5.8389 16.022-8.9171 20.669-3.4507 5.2109-6.2772 6.671-7.9419 6.671s-4.4904-1.4599-7.9414-6.671c-3.078-4.6482-6.1979-11.759-8.9171-20.669zm46.581 0h20.08c-8.4191 10.677-18.245 18.568-28.923 23.057 3.4128-6.2889 6.3123-14.027 8.8359-23.036zm35.305 0h9.1074c-6.0551 5.1912-12.66 9.7598-19.721 13.6 3.3258-3.6142 6.4517-7.5379 9.352-11.732 0.42584-0.61583 0.84478-1.2406 1.2614-1.8682zm-129.73 0.48867c0.30894 0.46203 0.61744 0.92466 0.93199 1.3795 2.9 4.194 6.0259 8.1175 9.3515 11.732-5.7177-3.1099-11.131-6.7037-16.201-10.713 2.007-0.67021 3.9832-1.4698 5.9172-2.3985z" style="font-feature-settings:normal;font-variant-alternates:normal;font-variant-caps:normal;font-variant-east-asian:normal;font-variant-ligatures:normal;font-variant-numeric:normal;font-variant-position:normal;font-variation-settings:normal;inline-size:0;isolation:auto;mix-blend-mode:normal;shape-margin:0;shape-padding:0;shape-rendering:auto;stroke-width:2.3328;text-decoration-color:#000000;text-decoration-line:none;text-decoration-style:solid;text-indent:0;text-orientation:mixed;text-transform:none;white-space:normal"/>
 </g>
</svg>
