<!--
Copyright 2023 ZORALab Enterprise <tech@zoralab.com>


Prestige Web Demo Proprietary License

Licensed under ZORALab Proprietary License (the “License”); you may ONLY use
this file except in compliance with the License. You may obtain a copy of the
License at:

        https://www.zoralab.com/docs/legal/zoralab-proprietary-license

All information contained herein is, and remains the property of ZORALab
Enterprise and its suppliers, if any. The intellectual and technical concepts
contained herein are proprietary to ZORALab Enterprise and its suppliers and
may be covered by Malaysia Patent Law, patents in process, and are protected by
trade secret or copyright law. Dissemination of this information or reproduction
of this material is strictly forbidden unless prior written permission is
obtained from ZORALab Enterprise.
-->
<svg width="1200" height="1200" version="1.1" viewBox="0 0 1200 1200" xmlns="http://www.w3.org/2000/svg">
 <defs>
  <radialGradient id="radialGradient4119" cx="-160.28" cy="308.53" r="720" gradientUnits="userSpaceOnUse">
   <stop style="stop-color:#fffcff" offset="0"/>
   <stop style="stop-color:#d5fefd" offset="1"/>
  </radialGradient>
 </defs>
 <g transform="matrix(.83333 0 0 .83333 733.57 342.89)">
  <rect x="-880.28" y="-411.47" width="1440" height="1440" rx="9.3736" ry="10.199" style="fill:url(#radialGradient4119);stroke-linecap:round;stroke-linejoin:round;stroke-width:28.218"/>
  <g transform="matrix(.9097 0 0 .9097 -14.473 32.543)" style="fill:#f60">
   <g transform="translate(2.4429)" style="fill:#f60;font-variant-ligatures:none;stroke-width:1.2" aria-label="Prestige">
    <path d="m-685.93 584.9h36.16c28.8 0 43.84-2.24 56.96-8.32 22.4-10.88 35.2-31.36 35.2-56.64 0-24.32-11.2-42.88-32.32-53.44-12.48-6.4-32.32-9.92-54.4-9.92h-112v15.04h5.76c18.24 0.32 24.32 1.28 26.88 4.48 1.92 2.88 1.92 3.52 1.92 19.84v152.32c0 16.32 0 16.96-1.92 19.84-2.56 3.2-8.64 4.48-26.88 4.48h-5.76v15.04h107.52v-15.04h-8.32c-18.24 0-24.32-1.28-26.88-4.48-1.92-2.88-1.92-3.52-1.92-19.84zm0-15.04v-81.92c0-14.72 1.6-16.32 19.52-16.32h20.48c33.28 0 48.96 15.68 48.96 49.6 0 32.96-16.32 48.64-50.24 48.64z" style="fill:#f60"/>
    <path d="m-488.49 538.5-56.64 3.52v13.76h13.12c12.16 0.32 13.76 2.24 13.76 16v91.52c-0.32 4.8-0.64 6.72-1.92 8.32-2.24 2.88-8.64 4.16-22.4 4.48h-1.28v11.52h85.44v-11.52h-5.76c-21.44-0.64-24.32-2.24-24.32-13.76v-17.28c0.32-53.76 19.52-94.72 44.48-96-4.48 5.12-5.76 8.32-5.76 14.4 0 10.24 7.36 17.6 17.6 17.6 11.84 0 19.52-8.64 19.52-21.44 0-15.68-10.88-25.92-27.84-25.92-20.16 0-37.44 16-48 44.48z" style="fill:#f60"/>
    <path d="m-262.89 615.62c0.32-48-26.88-81.92-65.92-81.92-40.96 0-71.68 35.52-71.68 83.52 0 45.12 29.12 75.2 72.32 75.2 30.72 0 52.16-15.04 65.28-45.44l-11.2-6.08c-13.12 24.64-26.56 34.24-48 34.24-16.32 0-28.16-6.72-36.48-21.12-5.76-9.6-8.32-20.8-8-38.4zm-103.36-13.76c0-9.92 1.28-16.96 4.48-25.92 6.72-19.2 16.96-28.48 32.64-28.48 19.2 0 32 16.96 32 42.88 0 8.96-2.88 11.52-13.12 11.52z" style="fill:#f60"/>
    <path d="m-128.17 534.98h-11.2l-9.28 11.52c-11.52-8.96-23.04-12.8-39.04-12.8-28.16 0-46.72 18.24-46.72 46.4 0 12.48 4.16 23.04 11.2 29.44 7.36 6.72 14.72 9.92 33.92 14.4l16.96 3.84c25.28 6.08 34.24 12.48 34.24 25.28 0 15.04-13.12 25.6-31.68 25.6-27.2 0-46.4-17.28-54.08-49.28h-12.8v60.48h11.2l11.2-13.12c13.12 10.56 27.52 15.68 43.84 15.68 31.36 0 52.16-19.52 52.16-49.28 0-14.08-4.48-24.96-13.44-32.32-7.68-6.72-14.08-9.28-33.6-13.44l-16-3.52c-17.6-3.84-17.6-3.84-23.36-7.04-7.04-3.2-11.2-9.92-11.2-16.96 0-13.12 12.16-22.08 29.76-22.08 12.16 0 22.08 4.16 31.04 12.8 7.04 7.04 10.56 13.44 15.68 28.16h11.2z" style="fill:#f60"/>
    <path d="m-46.565 538.5v-63.36h-13.12c-3.2 41.6-17.28 62.72-43.2 64.64v12.48h26.24v81.6c0 22.4 0.64 30.4 3.84 37.76 5.12 13.44 17.92 20.8 36.48 20.8 28.8 0 47.36-21.76 47.36-55.68 0-1.92 0-4.16-0.32-7.36h-13.44c-0.96 28.8-9.28 43.52-24.96 43.52-7.36 0-13.76-3.84-16-9.28-1.92-4.48-2.88-12.48-2.88-24v-87.36h47.04v-13.76z" style="fill:#f60"/>
    <path d="m81.755 538.5-60.16 3.52v13.76h16.32c12.16 0.32 13.76 2.24 13.76 16v91.52c-0.32 4.8-0.64 6.72-1.92 8.32-2.24 2.88-8.32 4.16-22.08 4.48h-2.24v11.52h82.88v-11.52h-2.24c-21.44-0.64-24.32-2.24-24.32-13.76v-14.08zm-15.04-79.68c-10.24 0-18.56 8.32-18.56 18.56s8.32 18.56 18.24 18.56c10.56 0 18.88-8.32 18.88-18.56s-8.32-18.56-18.56-18.56z" style="fill:#f60"/>
    <path d="m176.47 663.94c-17.6-0.32-18.56-0.64-22.4-2.88-2.24-1.28-3.84-4.8-3.84-8.32 0-9.6 8.64-13.76 30.08-14.4 30.08-0.64 34.88-1.28 45.76-6.08 19.2-8.64 29.76-25.28 29.76-46.4 0-12.8-2.88-20.8-11.52-31.36 5.44-5.76 8.32-7.68 10.88-7.68 1.6 0 2.56 0.96 3.2 4.48 1.28 7.68 6.4 11.84 14.4 11.84 8.32 0 14.4-6.72 14.4-15.36 0-10.88-8.64-18.56-21.12-18.56-10.24 0-16 3.2-30.72 16.64-13.44-8.96-23.68-12.16-39.68-12.16-38.08 0-63.04 21.12-63.04 53.12 0 18.88 10.24 34.88 26.88 42.88-21.44 4.8-30.4 14.4-30.4 32 0 14.08 6.4 22.4 21.44 27.52-19.84 7.36-29.44 17.28-29.44 30.4 0 9.6 6.4 18.56 16.64 24 12.48 6.4 27.84 8.96 50.88 8.96 53.44 0 80-16.96 80-50.56 0-16-7.36-28.8-18.88-33.6-8.64-3.2-18.88-4.48-40.64-4.48zm18.88-116.48c19.84 0 31.04 13.76 31.04 38.72s-12.16 40-32.32 40c-19.84 0-32.32-15.04-32.32-39.04 0-25.28 12.16-39.68 33.6-39.68zm-2.88 144c26.56 0 28.48 0 32.96 0.64 13.12 1.28 20.8 8.32 20.8 18.56 0 18.24-20.8 28.8-56.32 28.8-27.2 0-42.24-8-42.24-22.4 0-10.56 5.76-17.6 21.12-25.6z" style="fill:#f60"/>
    <path d="m430.87 615.62c0.32-48-26.88-81.92-65.92-81.92-40.96 0-71.68 35.52-71.68 83.52 0 45.12 29.12 75.2 72.32 75.2 30.72 0 52.16-15.04 65.28-45.44l-11.2-6.08c-13.12 24.64-26.56 34.24-48 34.24-16.32 0-28.16-6.72-36.48-21.12-5.76-9.6-8.32-20.8-8-38.4zm-103.36-13.76c0-9.92 1.28-16.96 4.48-25.92 6.72-19.2 16.96-28.48 32.64-28.48 19.2 0 32 16.96 32 42.88 0 8.96-2.88 11.52-13.12 11.52z" style="fill:#f60"/>
   </g>
   <g transform="matrix(1.2 0 0 1.2 153.92 -37.489)" style="fill:#f60">
    <g transform="matrix(1.0894 0 0 1.0894 -58.921 -123.65)" style="fill:#f60">
     <path d="m-9.8918 441.89c-2.4671-0.5047-7.2506-1.7669-10.63-2.8049-3.3792-1.038-10.455-3.6282-15.723-5.7559-5.2682-2.1277-16.966-7.3921-25.995-11.699-9.0292-4.3065-20.623-10.094-25.763-12.86-5.1404-2.7668-12.803-7.0274-17.029-9.4681-4.2254-2.4407-10.992-6.4986-15.037-9.0176-4.0449-2.519-10.216-6.5672-13.714-8.9962-3.4978-2.4289-9.3771-6.8023-13.065-9.7186-3.6881-2.9162-8.6444-7.3043-11.014-9.7511-2.3695-2.4468-5.4549-6.157-6.8566-8.2448s-2.9221-5.2412-3.3786-7.0078c-0.60382-2.3363-0.65037-3.9291-0.17064-5.843 0.36275-1.4472 1.2163-3.1531 1.8968-3.791 1.1889-1.1143 1.5713-0.88974 9.7549 5.7266 4.6847 3.7875 12.181 9.5202 16.658 12.74 4.4771 3.2192 10.698 7.4984 13.825 9.5093 3.1267 2.0109 8.9914 5.5427 13.033 7.8486 4.0412 2.3059 12.24 6.7066 18.22 9.7794 5.9796 3.0728 13.934 6.9621 17.676 8.6428 3.742 1.6808 9.3466 3.8243 12.455 4.7634 4.016 1.2135 7.5947 1.7702 12.369 1.9243 5.6083 0.18095 7.4776-0.0285 11.315-1.2676 3.4663-1.1194 5.0916-2.0683 6.6096-3.8595 1.7109-2.0187 2.0039-2.9015 1.9519-5.8817-0.0426-2.4455-1.004-6.0736-3.1769-11.99-1.7137-4.6662-3.1337-9.2951-3.1555-10.287-0.0264-1.1989 0.50686-2.1747 1.5927-2.9136 1.1912-0.81061 2.3955-1.0102 4.454-0.73818 1.5517 0.20507 4.4723 1.2664 6.4902 2.3586 2.0909 1.1317 6.8673 5.0944 11.106 9.2135 4.0902 3.9752 9.5944 10.166 12.231 13.757 2.6371 3.5911 6.3626 9.193 8.2788 12.448 1.9162 3.2555 4.562 8.4632 5.8794 11.573 1.3175 3.1095 2.9458 8.2175 3.6186 11.351 1.0022 4.6686 1.1032 6.4118 0.55915 9.6514-0.36529 2.1746-1.2858 4.86-2.0457 5.9675-0.75982 1.1076-2.6096 2.6787-4.1106 3.4914-2.0827 1.1278-4.1373 1.5475-8.6757 1.7724-3.5879 0.17782-7.7259-0.0693-10.432-0.62293zm-335.87-4.6531c-1.6541-0.50324-4.031-1.8749-5.2819-3.0481-1.251-1.1732-3.0746-3.756-4.0525-5.7394-1.6302-3.3063-1.7906-4.3234-1.9288-12.235l-0.1507-8.6287 2.4459-5.1744c1.3452-2.8459 4.2173-7.9397 6.3825-11.319 2.3235-3.627 6.8774-9.2062 11.113-13.616 3.9472-4.1088 9.3821-8.9984 12.077-10.866 2.6953-1.8674 7.1121-4.5578 9.8152-5.9788s6.7995-3.3309 9.1031-4.2443 4.3386-1.5157 4.5221-1.3385c0.18351 0.17721-1.989 3.1284-4.8279 6.5581s-7.1028 8.9481-9.4755 12.263c-2.3726 3.3149-5.5981 8.6837-7.1677 11.931-1.743 3.6058-2.8382 6.7949-2.8137 8.1937 0.0221 1.2596 0.35243 2.8502 0.7343 3.5347 0.38185 0.6845 1.928 1.5538 3.4359 1.9317 2.0044 0.50235 3.8637 0.47147 6.9145-0.11431 2.2951-0.44109 6.1774-1.4582 8.6273-2.2603 2.4499-0.80209 7.3062-2.6511 10.792-4.1089 3.4856-1.4578 11.099-4.9672 16.918-7.7986 5.8194-2.8314 14.474-7.37 19.231-10.086 4.7578-2.7157 12.473-7.596 17.144-10.845 4.6716-3.2492 11.279-8.3228 14.683-11.275 3.4038-2.952 8.8231-7.8804 12.043-10.952 3.2198-3.0716 7.3713-6.6329 9.2255-7.914 2.0066-1.3864 3.9812-2.2512 4.878-2.1364 1.0166 0.13012 1.6844 0.81725 2.053 2.1123 0.4779 1.679 0.0346 2.681-3.5378 7.9975-2.2463 3.3429-6.4583 9.1597-9.36 12.926-2.9017 3.7665-7.9897 9.956-11.307 13.754-3.317 3.7984-9.4349 10.289-13.595 14.425-4.1604 4.1352-11.311 10.641-15.891 14.457-4.5796 3.8162-12.297 9.6471-17.149 12.958-4.8524 3.3106-13.394 8.4055-18.98 11.322-5.5867 2.9166-13.706 6.6325-18.042 8.2578-4.3362 1.6252-11.439 3.9041-15.783 5.0642-4.5387 1.2119-10.428 2.2791-13.844 2.5086-4.1327 0.27769-6.8615 0.11986-8.9523-0.51559zm287.47-106.96c-1.4571-0.12753-5.9192-0.63571-9.9158-1.1292-3.9966-0.49353-11.197-1.8319-16.001-2.9742-4.8042-1.1423-12.443-3.4035-16.975-5.025s-12.591-5.0208-17.909-7.554c-5.3182-2.5332-12.073-6.0372-15.011-7.7866-2.9724-1.7701-5.455-3.7203-5.5976-4.3973-0.14104-0.66911 0.14019-1.4824 0.62494-1.8074 0.4848-0.32495 1.9566-0.90908 3.2708-1.2981 2.1192-0.62734 3.7323-0.28938 14.27 2.9897 6.5345 2.0334 16.511 4.6767 22.169 5.8741 5.6586 1.1974 14.464 2.7279 19.568 3.401 5.4929 0.72444 14.408 1.2839 21.847 1.371 9.6083 0.11248 14.509-0.14302 20.812-1.0852 4.5347-0.67779 11.172-2.0243 14.751-2.9923 3.5781-0.96797 9.2703-2.9552 12.649-4.416 3.379-1.4608 8.654-4.2986 11.722-6.3062 3.0683-2.0076 7.4343-5.3193 9.7021-7.3594 2.2679-2.0401 5.7892-5.6726 7.8253-8.0724 2.036-2.3997 4.544-5.8658 5.5732-7.7024 1.1101-1.9808 1.8572-4.2975 1.8364-5.6948-0.0247-1.7217-0.53214-2.8046-1.8827-4.0242-1.0162-0.91777-4.2515-2.9875-7.1894-4.5994s-7.5883-3.7768-10.334-4.8108c-2.746-1.034-7.6802-2.608-10.965-3.4978-3.2847-0.88977-8.8104-2.0532-12.279-2.5854-4.1143-0.63122-10.215-0.90292-17.546-0.7814-8.7727 0.1457-13.119 0.54958-19.807 1.8418-4.7124 0.91056-11.971 2.7515-16.131 4.0909-4.1594 1.3394-10.812 3.8276-14.783 5.5292-3.9712 1.7016-10.516 4.8935-14.545 7.0932-4.0283 2.1996-10.205 5.8809-13.726 8.1806-3.5209 2.2997-9.4941 6.513-13.274 9.363-3.7796 2.8499-10.455 8.3012-14.834 12.114-4.4105 3.84-8.5646 6.9426-9.3129 6.9557-0.90214 0.0158-1.7449-0.76691-2.5372-2.3562l-1.1863-2.3798 3.9018-3.6742c2.146-2.0208 7.2763-6.4089 11.401-9.7513 4.1244-3.3424 12.497-9.5409 18.607-13.774 6.1093-4.2335 14.938-9.9204 19.619-12.638 4.6809-2.7172 11.314-6.3118 14.74-7.988 3.4261-1.6762 10.218-4.684 15.093-6.6841 4.8753-2.0001 11.528-4.4581 14.784-5.4623 3.2559-1.0042 8.4384-2.456 11.517-3.2263 3.0782-0.77023 8.7128-1.893 12.521-2.495 3.8086-0.602 10.045-1.3418 13.859-1.644 3.8138-0.30222 10.807-0.28478 15.541 0.0389 4.734 0.32361 11.444 1.1213 14.91 1.7727 3.4667 0.6513 9.1453 2.0497 12.619 3.1076 3.4738 1.0578 9.7176 3.4721 13.875 5.365 4.1575 1.8929 10.466 5.279 14.019 7.5248 3.5529 2.2457 8.7908 5.8974 11.64 8.1147 2.849 2.2173 5.7953 4.7864 6.5475 5.7091 0.89056 1.0924 1.385 2.6675 1.4172 4.5154 0.04 2.2784-0.28924 3.114-1.6684 4.2385-0.9449 0.77034-2.4022 1.4126-3.2386 1.4272-0.83633 0.0146-2.2589 0.3221-3.1612 0.68333-0.90233 0.36125-5.9714 5.1624-11.264 10.669-5.2931 5.5069-11.985 11.855-14.872 14.107-2.8865 2.2517-7.7743 5.8041-10.862 7.8943-3.0874 2.0902-8.7335 5.4695-12.547 7.5095-3.8133 2.04-10.059 4.9794-13.878 6.532-3.8197 1.5526-10.264 3.7707-14.32 4.9292-4.0566 1.1585-10.342 2.6205-13.969 3.2489-3.6262 0.62843-11.649 1.3386-17.828 1.5782-6.179 0.23958-12.427 0.33121-13.884 0.20368zm-232.8-1.2435c-2.5476-0.0889-8.8051-0.55261-13.906-1.0304-5.1004-0.47784-12.856-1.5314-17.234-2.3411-4.3781-0.80984-10.554-2.1698-13.724-3.0221-3.1701-0.85236-9.2906-2.7324-13.601-4.1779-4.3106-1.4455-12.802-4.9901-18.871-7.8768-6.0682-2.8868-14.645-7.569-19.059-10.405-4.4142-2.8359-10.59-7.1247-13.723-9.5306-3.1336-2.4059-10.095-8.6337-15.47-13.84-6.0835-5.8925-12.455-12.913-16.88-18.599-3.9094-5.0238-8.2454-10.939-9.6356-13.144-1.3902-2.2056-2.5326-4.2993-2.5388-4.6526-6e-3 -0.35333 4.5091-1.666 10.034-2.9171s14.942-3.0692 20.926-4.0403 14.891-2.2055 19.791-2.7432c4.9008-0.53774 16.348-1.1039 25.438-1.258 10.751-0.1824 20.013 0.0369 26.499 0.62754 5.4844 0.49929 13.387 1.4602 17.562 2.1353 4.1747 0.67509 11.027 2.0348 15.227 3.0216s11.078 2.8924 15.284 4.2347c4.2062 1.3423 10.291 3.4849 13.522 4.7613 3.2307 1.2764 8.266 3.4716 11.19 4.8781 2.9236 1.4065 8.5344 4.3935 12.468 6.6376 3.9341 2.2442 10.769 6.6855 15.19 9.8697 4.4203 3.1842 10.391 7.9129 13.268 10.508 2.8769 2.5954 5.1274 4.826 5.001 4.9569-0.12633 0.13083-4.7974-1.7676-10.38-4.2188s-14.406-6.1838-19.608-8.2947c-5.2018-2.1109-14.251-5.6344-20.109-7.8298-5.8579-2.1955-15.44-5.5991-21.294-7.5638-5.8538-1.9646-16.175-5.0632-22.935-6.8857-6.7607-1.8225-16.024-4.0051-20.585-4.8502-4.5612-0.84507-11.572-1.825-15.579-2.1777-4.0071-0.35263-9.4515-0.40669-12.099-0.12012-2.6472 0.28655-6.7526 1.1573-9.1229 1.935-3.1786 1.0429-5.0212 2.1519-7.0208 4.2257-1.5581 1.6159-3.0367 3.975-3.4767 5.547-0.42105 1.5044-0.73421 4.5288-0.69593 6.7209 0.0383 2.1921 0.68696 5.8661 1.4415 8.1645s2.3284 5.6501 3.4973 7.4483c1.169 1.7982 3.8392 4.9785 5.9336 7.0674 2.0945 2.0888 6.0379 5.2596 8.7631 7.0462 2.7252 1.7865 8.0231 4.6486 11.773 6.3601s11.266 4.4885 16.702 6.171c5.4362 1.6825 14.065 3.902 19.175 4.9322s12.723 2.406 16.917 3.0574c4.1942 0.65142 12.247 1.6978 17.896 2.3253 5.6486 0.62747 15.336 1.5031 21.527 1.9459 6.191 0.44276 16.021 1.0124 21.845 1.2658 5.824 0.25341 15.501 0.58021 21.505 0.72623 6.0039 0.146 11.664 0.45951 12.577 0.69664 1.4258 0.37018 1.0096 0.64952-2.9414 1.9741-2.5312 0.84859-7.9816 2.483-12.112 3.6319-4.1303 1.1489-11.391 2.8744-16.135 3.8344-4.744 0.95994-12.634 2.2639-17.533 2.8976-4.8992 0.63373-13.665 1.3602-19.48 1.6143-5.8151 0.25419-12.657 0.38938-15.205 0.30039zm102.83-13.93c-0.78373-0.30052-3.3072-2.6927-5.6079-5.316-2.3006-2.6233-6.423-8.004-9.161-11.957-2.7379-3.9531-6.8196-10.726-9.0706-15.052-2.2509-4.3253-5.1899-10.856-6.5311-14.512-1.3412-3.6563-3.2652-10.054-4.2755-14.217s-2.1661-11.344-2.5684-15.958c-0.42926-4.9227-0.54281-11.702-0.27494-16.406 0.25122-4.4096 0.98713-10.8 1.6354-14.2 0.64833-3.4003 2.2277-9.5346 3.5097-13.632 1.282-4.0971 4.2599-11.516 6.6175-16.486 2.3576-4.9704 6.3259-12.197 8.8184-16.06 2.4925-3.8626 6.5005-9.5868 8.9067-12.72 2.4062-3.1337 8.3304-9.8961 13.165-15.028 4.8344-5.1316 9.7312-9.7516 10.882-10.267 1.1701-0.52393 2.9664-0.77752 4.0768-0.57555 1.0918 0.1986 2.5918 0.98702 3.3334 1.7521 0.74163 0.76505 3.0453 4.6536 5.1193 8.6412 2.0739 3.9877 5.1521 10.481 6.8404 14.429 1.6883 3.9485 4.2198 10.558 5.6255 14.688 1.4058 4.1299 3.3089 10.495 4.2293 14.144 0.92032 3.6495 2.2094 9.7081 2.8646 13.464 0.65527 3.7555 1.4329 10.586 1.7282 15.18 0.30977 4.8199 0.26202 11.433-0.11294 15.637-0.35739 4.0072-1.1705 9.6948-1.8069 12.639-0.63645 2.9444-1.7752 7.2793-2.5305 9.6332-0.75524 2.3539-2.7677 7.1312-4.4721 10.616-1.7044 3.4851-4.9695 8.9138-7.2557 12.064-2.2862 3.15-6.2528 7.7748-8.8143 10.277-2.5616 2.5025-5.3826 4.8957-6.2688 5.3184-1.2792 0.61002-1.8187 0.56802-2.6179-0.20375-0.5537-0.53466-1.1906-1.9922-1.4153-3.239-0.33813-1.8759-0.0107-2.8433 1.9-5.6085 1.2697-1.8379 3.8663-6.0471 5.7702-9.3539 1.9039-3.3067 4.3336-8.116 5.3993-10.687 1.0657-2.5713 2.6301-6.9293 3.4766-9.6845 0.84648-2.7552 2.0364-7.532 2.6442-10.615 0.80867-4.1019 1.0556-8.4433 0.92037-16.183-0.13383-7.663-0.53576-12.078-1.4587-16.023-0.70067-2.9951-2.1481-7.88-3.2164-10.855-1.0683-2.9754-2.8959-7.4106-4.0613-9.856s-3.6729-6.9202-5.5722-9.9441c-1.8993-3.0238-4.3739-6.2454-5.4989-7.159-1.3857-1.1253-2.829-1.6467-4.474-1.6163-1.3356 0.0242-3.4586 0.6951-4.7178 1.4898-1.2591 0.79471-4.799 4.0545-7.8663 7.244s-7.0346 8.0588-8.8161 10.821c-1.7816 2.7619-4.3897 7.4201-5.7958 10.352-1.4061 2.9314-3.2812 7.4635-4.1669 10.071-0.88569 2.6077-2.0558 7.092-2.6003 9.965-0.54444 2.8731-1.182 8.2584-1.4168 11.967s-0.11371 10.14 0.26895 14.291c0.38281 4.1512 1.3839 10.625 2.2246 14.387 0.84072 3.7616 2.8838 10.684 4.5402 15.384 1.6564 4.6994 4.6101 11.923 6.5636 16.053 1.9536 4.1296 5.7293 11.206 8.3906 15.725 2.6612 4.5192 5.5481 9.5194 6.4152 11.112 0.86718 1.5923 1.5914 3.7372 1.6094 4.7664 0.0281 1.6108-0.22045 1.8699-1.7861 1.8611-1.0004-4e-3 -2.46-0.256-3.2437-0.55649zm69.532-69.699c-0.22603-0.55955 0.16964-2.724 0.87937-4.8099 0.70962-2.0859 3.2638-8.89 5.676-15.12 2.4122-6.2303 5.9935-16.411 7.9585-22.624 1.965-6.2126 4.6395-15.778 5.9433-21.257 1.3039-5.4786 2.8087-12.796 3.344-16.26 0.53533-3.4647 1.0874-9.8725 1.2269-14.24 0.15994-5.0102-0.0723-9.6799-0.62921-12.655-0.48551-2.5931-1.7372-6.4399-2.7815-8.5484-1.0443-2.1086-3.1082-4.8866-4.5866-6.1733-1.4783-1.2867-4.0761-2.842-5.7728-3.4563-2.0533-0.74336-4.1599-0.99459-6.299-0.75129-1.7677 0.20107-4.5113 1.0276-6.097 1.8367-1.5857 0.80912-4.5018 2.8381-6.4803 4.5088-1.9786 1.6707-6.024 5.8866-8.99 9.3686s-6.2464 6.7021-7.2897 7.1558c-1.0434 0.45368-2.3517 0.65947-2.9073 0.45732-0.55567-0.20216-1.0239-1.1493-1.0406-2.1047-0.0166-0.95542 2.3835-6.8841 5.3337-13.175 2.9502-6.2907 6.8596-14.142 8.6875-17.447 1.8279-3.3054 5.5271-9.4706 8.2205-13.7 2.8757-4.5163 7.1993-10.107 10.475-13.546 3.3127-3.4776 6.7644-6.4189 8.4998-7.243 1.6072-0.76318 4.2011-1.4165 5.7644-1.4517 1.5633-0.0348 3.653 0.34149 4.6438 0.83726 0.99079 0.49584 2.6144 1.7322 3.6079 2.7476 0.99355 1.0153 2.8791 3.5639 4.19 5.6635 1.311 2.0996 3.3625 6.3788 4.559 9.5094s2.94 8.6545 3.8744 12.275c0.9344 3.6209 2.2152 10.086 2.8461 14.368 0.67363 4.5708 1.2365 12.898 1.3636 20.171 0.11897 6.8129-0.1497 15.804-0.59713 19.981-0.44741 4.1768-1.2608 9.9827-1.8074 12.902-0.54672 2.9193-1.692 7.9983-2.545 11.287-0.85309 3.2884-2.6691 8.9999-4.0358 12.692-1.3666 3.6924-3.7909 9.389-5.3872 12.659s-5.0354 9.2562-7.6423 13.303c-2.6068 4.0465-7.1148 10.164-10.018 13.594-2.9028 3.43-6.4778 7.1379-7.9443 8.2398-1.4666 1.1019-2.9287 2.0081-3.2491 2.0137-0.32048 4e-3 -0.76761-0.44765-0.99357-1.0072zm-134.92-5.0608c-0.38497-0.26048-2.1324-3.5733-3.883-7.3618-1.7507-3.7885-4.4829-9.9901-6.0716-13.781-1.5888-3.7913-4.5372-11.182-6.552-16.424-2.0148-5.2418-5.1018-14.116-6.8599-19.719-1.7581-5.6039-4.0086-13.38-5.001-17.281-0.99247-3.9005-2.5205-10.867-3.3956-15.481-1.2531-6.6074-1.6446-11.128-1.8429-21.281-0.20528-10.523-0.041-13.745 0.89563-17.54 0.63109-2.5571 1.9497-6.5195 2.9302-8.8054 1.0109-2.3568 3.275-5.7901 5.2294-7.9303 1.8956-2.0758 4.5272-4.3495 5.848-5.0526 1.3208-0.70316 3.5654-1.4855 4.988-1.7385 1.5789-0.28083 4.2452-0.0666 6.8436 0.5516 2.3413 0.55644 6.2116 2.0412 8.6005 3.2996 2.389 1.2584 6.7632 4.1091 9.7205 6.335 2.9572 2.226 8.5121 7.0791 12.344 10.785 3.832 3.7057 9.4526 9.6702 12.49 13.254 3.0377 3.5842 6.1645 7.4082 6.9486 8.498 0.78403 1.0897 1.6424 3.0354 1.9074 4.3236 0.31316 1.522 0.14257 3.1962-0.48728 4.7807-0.82465 2.0748-1.2794 2.4438-3.0494 2.4748-1.1442 0.02-2.9621-0.56864-4.0398-1.308-1.0777-0.73941-3.6686-3.5956-5.7574-6.3472-2.0889-2.7516-6.745-7.8155-10.347-11.253-4.7864-4.568-7.7587-6.8198-11.043-8.366-3.1603-1.4878-5.4176-2.0995-7.607-2.0612-2.0962 0.0367-3.9095 0.566-5.5511 1.6205-1.3408 0.86139-3.4447 3.1129-4.6753 5.0034-1.2306 1.8904-3.0468 6.1296-4.0359 9.4203-0.98916 3.2908-2.2228 8.8177-2.7414 12.282-0.51857 3.4644-1.0717 9.7234-1.2293 13.909-0.16165 4.2963 0.13276 11.768 0.67613 17.158 0.52941 5.2513 1.7642 13.711 2.744 18.799 0.97974 5.0883 2.8981 13.249 4.2629 18.136 1.3649 4.8864 3.7091 12.313 5.2095 16.503 1.5004 4.1902 3.4194 9.0669 4.2646 10.837 0.84516 1.7702 1.6526 3.4398 1.7943 3.7101 0.1418 0.27031-0.43651 0.49905-1.285 0.50829-0.8485 0.01-1.8577-0.19631-2.2428-0.45681zm32.792-133.14c-0.58012-0.79822-1.0744-2.5771-1.0985-3.953s0.35909-5.557 0.85141-9.2914c0.49233-3.7343 1.5984-10.224 2.4579-14.422 0.85962-4.1978 2.548-10.774 3.7521-14.614 1.2041-3.8401 3.4542-9.546 5.0002-12.68 1.5461-3.1338 4.2028-7.4885 5.9037-9.6771 1.701-2.1885 4.553-5.1323 6.3377-6.5417s5.1254-3.1857 7.4236-3.9472c2.2982-0.7616 5.7296-1.4118 7.6251-1.4449 1.8956-0.0331 4.9214 0.36202 6.7241 0.87805s4.7149 1.9603 6.4716 3.2094c1.7566 1.2492 4.5915 4.0996 6.2996 6.3342 1.7081 2.2347 4.1932 6.1272 5.5223 8.65s3.6097 7.6001 5.068 11.283c2.0415 5.1554 3.2468 9.9515 5.2393 20.848 1.4233 7.7836 3.0561 15.409 3.6283 16.945 0.5723 1.5359 1.3774 3.1844 1.7891 3.6632 0.41177 0.47886 0.48902 0.87369 0.17178 0.87744-0.31728 4e-3 -1.3641-0.64757-2.3262-1.4473-0.96223-0.79978-2.8173-2.7746-4.1224-4.3886s-4.2972-6.0255-6.6491-9.8035-5.4209-8.5015-6.82-10.497c-1.3991-1.9952-4.3488-5.2412-6.555-7.2133-2.2061-1.9721-5.4738-4.2554-7.2616-5.0741-1.7877-0.8187-4.9737-1.5939-7.0799-1.7227-2.6232-0.16041-4.7411 0.13248-6.7238 0.9295-1.8802 0.75596-4.2297 2.6421-6.7053 5.383-2.3051 2.5521-4.9707 6.5677-6.746 10.163-1.6143 3.2689-4.5369 9.8027-6.4946 14.52-1.9577 4.7168-4.1782 9.517-4.9346 10.667-0.75634 1.1501-1.8256 2.471-2.3762 2.9352-0.55059 0.46428-1.5224 0.85323-2.1594 0.86436-0.6371 0.0112-1.633-0.63287-2.2132-1.4311z" style="fill:#f60"/>
    </g>
   </g>
  </g>
 </g>
</svg>
