<!--
Copyright 2023 ZORALab Enterprise <tech@zoralab.com>


Prestige Web Demo Proprietary License

Licensed under ZORALab Proprietary License (the “License”); you may ONLY use
this file except in compliance with the License. You may obtain a copy of the
License at:

        https://www.zoralab.com/docs/legal/zoralab-proprietary-license

All information contained herein is, and remains the property of ZORALab
Enterprise and its suppliers, if any. The intellectual and technical concepts
contained herein are proprietary to ZORALab Enterprise and its suppliers and
may be covered by Malaysia Patent Law, patents in process, and are protected by
trade secret or copyright law. Dissemination of this information or reproduction
of this material is strictly forbidden unless prior written permission is
obtained from ZORALab Enterprise.
-->
<?xml version="1.0" encoding="UTF-8" standalone="no"?>
<!-- Created with Inkscape (http://www.inkscape.org/) -->

<svg
   width="1200"
   height="1200"
   viewBox="0 0 1200 1200"
   version="1.1"
   id="svg5"
   inkscape:version="1.2.2 (b0a8486541, 2022-12-01)"
   sodipodi:docname="inkscape-logo-1200x1200.svg"
   xml:space="preserve"
   xmlns:inkscape="http://www.inkscape.org/namespaces/inkscape"
   xmlns:sodipodi="http://sodipodi.sourceforge.net/DTD/sodipodi-0.dtd"
   xmlns="http://www.w3.org/2000/svg"
   xmlns:svg="http://www.w3.org/2000/svg"><sodipodi:namedview
     id="namedview7"
     pagecolor="#ffffff"
     bordercolor="#666666"
     borderopacity="1.0"
     inkscape:pageshadow="2"
     inkscape:pageopacity="0.0"
     inkscape:pagecheckerboard="true"
     inkscape:document-units="px"
     showgrid="false"
     units="px"
     width="1200px"
     inkscape:zoom="0.37371282"
     inkscape:cx="17.393035"
     inkscape:cy="663.61117"
     inkscape:window-width="1920"
     inkscape:window-height="1005"
     inkscape:window-x="0"
     inkscape:window-y="0"
     inkscape:window-maximized="1"
     inkscape:current-layer="g7468"
     inkscape:showpageshadow="2"
     inkscape:deskcolor="#d1d1d1" /><defs
     id="defs2" /><g
     inkscape:label="Layer 1"
     inkscape:groupmode="layer"
     id="layer1"><g
       id="g7468"
       transform="matrix(0.83333335,0,0,0.83333335,733.56752,342.8932)"><g
         id="g7478"
         style="fill:#ffff00;stroke:#000080" /><g
         id="g520"
         transform="matrix(1.2129349,0,0,1.2129349,34.129423,-59.451409)"
         style="fill:#000000"><g
           aria-label="Prestige"
           id="text399"
           style="font-size:320px;line-height:1.25;font-family:'Noto Sans';-inkscape-font-specification:'Noto Sans, Normal';font-variant-ligatures:none;stroke-width:1.2;fill:#000000"
           transform="translate(2.4429273)"><path
             d="m -685.92546,584.90433 h 36.16 c 28.8,0 43.84,-2.24 56.96,-8.32 22.4,-10.88 35.2,-31.36 35.2,-56.64 0,-24.32 -11.2,-42.88 -32.32,-53.44 -12.48,-6.4 -32.32,-9.92 -54.4,-9.92 h -112 v 15.04 h 5.76 c 18.24,0.32 24.32,1.28 26.88,4.48 1.92,2.88 1.92,3.52 1.92,19.84 v 152.32 c 0,16.32 0,16.96 -1.92,19.84 -2.56,3.2 -8.64,4.48 -26.88,4.48 h -5.76 v 15.04 h 107.52 v -15.04 h -8.32 c -18.24,0 -24.32,-1.28 -26.88,-4.48 -1.92,-2.88 -1.92,-3.52 -1.92,-19.84 z m 0,-15.04 v -81.92 c 0,-14.72 1.6,-16.32 19.52,-16.32 h 20.48 c 33.28,0 48.96,15.68 48.96,49.6 0,32.96 -16.32,48.64 -50.24,48.64 z"
             style="font-family:C059;-inkscape-font-specification:C059;fill:#000000"
             id="path506" /><path
             d="m -488.48552,538.50433 -56.64,3.52 v 13.76 h 13.12 c 12.16,0.32 13.76,2.24 13.76,16 v 76.48 15.04 c -0.32,4.8 -0.64,6.72 -1.92,8.32 -2.24,2.88 -8.64,4.16 -22.4,4.48 h -1.28 v 11.52 h 85.44 v -11.52 h -5.76 c -21.44,-0.64 -24.32,-2.24 -24.32,-13.76 v -14.08 -3.2 c 0.32,-53.76 19.52,-94.72 44.48,-96 -4.48,5.12 -5.76,8.32 -5.76,14.4 0,10.24 7.36,17.6 17.6,17.6 11.84,0 19.52,-8.64 19.52,-21.44 0,-15.68 -10.88,-25.92 -27.84,-25.92 -20.16,0 -37.44,16 -48,44.48 z"
             style="font-family:C059;-inkscape-font-specification:C059;fill:#000000"
             id="path503" /><path
             d="m -262.88561,615.62433 c 0.32,-48 -26.88,-81.92 -65.92,-81.92 -40.96,0 -71.68,35.52 -71.68,83.52 0,45.12 29.12,75.2 72.32,75.2 30.72,0 52.16,-15.04 65.28,-45.44 l -11.2,-6.08 c -13.12,24.64 -26.56,34.24 -48,34.24 -16.32,0 -28.16,-6.72 -36.48,-21.12 -5.76,-9.6 -8.32,-20.8 -8,-38.4 z m -103.36,-13.76 c 0,-9.92 1.28,-16.96 4.48,-25.92 6.72,-19.2 16.96,-28.48 32.64,-28.48 19.2,0 32,16.96 32,42.88 0,8.96 -2.88,11.52 -13.12,11.52 z"
             style="font-family:C059;-inkscape-font-specification:C059;fill:#000000"
             id="path500" /><path
             d="m -128.16552,534.98433 h -11.2 l -9.28,11.52 c -11.52,-8.96 -23.04,-12.8 -39.04,-12.8 -28.16,0 -46.72,18.24 -46.72,46.4 0,12.48 4.16,23.04 11.2,29.44 7.36,6.72 14.72,9.92 33.92,14.4 l 16.96,3.84 c 25.28,6.08 34.24,12.48 34.24,25.28 0,15.04 -13.12,25.6 -31.68,25.6 -27.2,0 -46.4,-17.28 -54.08,-49.28 h -12.8 v 60.48 h 11.2 l 11.2,-13.12 c 13.12,10.56 27.52,15.68 43.84,15.68 31.36,0 52.16,-19.52 52.16,-49.28 0,-14.08 -4.48,-24.96 -13.44,-32.32 -7.68,-6.72 -14.08,-9.28 -33.6,-13.44 l -16,-3.52 c -17.6,-3.84 -17.6,-3.84 -23.36,-7.04 -7.04,-3.2 -11.2,-9.92 -11.2,-16.96 0,-13.12 12.16,-22.08 29.76,-22.08 12.16,0 22.08,4.16 31.04,12.8 7.04,7.04 10.56,13.44 15.68,28.16 h 11.2 z"
             style="font-family:C059;-inkscape-font-specification:C059;fill:#000000"
             id="path497" /><path
             d="m -46.565447,538.50433 v -63.36 h -13.12 c -3.2,41.6 -17.28,62.72 -43.200003,64.64 v 12.48 h 26.240003 v 81.6 c 0,22.4 0.64,30.4 3.84,37.76 5.12,13.44 17.92,20.8 36.48,20.8 28.8000002,0 47.36,-21.76 47.36,-55.68 0,-1.92 0,-4.16 -0.32,-7.36 H -2.7254468 c -0.96,28.8 -9.2800002,43.52 -24.9600002,43.52 -7.36,0 -13.76,-3.84 -16,-9.28 -1.92,-4.48 -2.88,-12.48 -2.88,-24 v -87.36 H 0.47455322 v -13.76 z"
             style="font-family:C059;-inkscape-font-specification:C059;fill:#000000"
             id="path494" /><path
             d="m 81.754534,538.50433 -60.16,3.52 v 13.76 h 16.32 c 12.16,0.32 13.76,2.24 13.76,16 v 76.48 15.04 c -0.32,4.8 -0.64,6.72 -1.92,8.32 -2.24,2.88 -8.32,4.16 -22.08,4.48 h -2.24 v 11.52 h 82.879996 v -11.52 h -2.24 c -21.439996,-0.64 -24.319996,-2.24 -24.319996,-13.76 v -14.08 z m -15.04,-79.68 c -10.24,0 -18.56,8.32 -18.56,18.56 0,10.24 8.32,18.56 18.24,18.56 10.56,0 18.88,-8.32 18.88,-18.56 0,-10.24 -8.32,-18.56 -18.56,-18.56 z"
             style="font-family:C059;-inkscape-font-specification:C059;fill:#000000"
             id="path491" /><path
             d="m 176.47446,663.94433 c -17.6,-0.32 -18.56,-0.64 -22.4,-2.88 -2.24,-1.28 -3.84,-4.8 -3.84,-8.32 0,-9.6 8.64,-13.76 30.08,-14.4 30.08,-0.64 34.88,-1.28 45.76,-6.08 19.2,-8.64 29.76,-25.28 29.76,-46.4 0,-12.8 -2.88,-20.8 -11.52,-31.36 5.44,-5.76 8.32,-7.68 10.88,-7.68 1.6,0 2.56,0.96 3.2,4.48 1.28,7.68 6.4,11.84 14.4,11.84 8.32,0 14.4,-6.72 14.4,-15.36 0,-10.88 -8.64,-18.56 -21.12,-18.56 -10.24,0 -16,3.2 -30.72,16.64 -13.44,-8.96 -23.68,-12.16 -39.68,-12.16 -38.08,0 -63.04,21.12 -63.04,53.12 0,18.88 10.24,34.88 26.88,42.88 -21.44,4.8 -30.4,14.4 -30.4,32 0,14.08 6.4,22.4 21.44,27.52 -19.84,7.36 -29.44,17.28 -29.44,30.4 0,9.6 6.4,18.56 16.64,24 12.48,6.4 27.84,8.96 50.88,8.96 53.44,0 80,-16.96 80,-50.56 0,-16 -7.36,-28.8 -18.88,-33.6 -8.64,-3.2 -18.88,-4.48 -40.64,-4.48 z m 18.88,-116.48 c 19.84,0 31.04,13.76 31.04,38.72 0,24.96 -12.16,40 -32.32,40 -19.84,0 -32.32,-15.04 -32.32,-39.04 0,-25.28 12.16,-39.68 33.6,-39.68 z m -2.88,144 c 26.56,0 28.48,0 32.96,0.64 13.12,1.28 20.8,8.32 20.8,18.56 0,18.24 -20.8,28.8 -56.32,28.8 -27.2,0 -42.24,-8 -42.24,-22.4 0,-10.56 5.76,-17.6 21.12,-25.6 z"
             style="font-family:C059;-inkscape-font-specification:C059;fill:#000000"
             id="path488" /><path
             d="m 430.87477,615.62433 c 0.32,-48 -26.88,-81.92 -65.92,-81.92 -40.96,0 -71.68,35.52 -71.68,83.52 0,45.12 29.12,75.2 72.32,75.2 30.72,0 52.16,-15.04 65.28,-45.44 l -11.2,-6.08 c -13.12,24.64 -26.56,34.24 -48,34.24 -16.32,0 -28.16,-6.72 -36.48,-21.12 -5.76,-9.6 -8.32,-20.8 -8,-38.4 z m -103.36,-13.76 c 0,-9.92 1.28,-16.96 4.48,-25.92 6.72,-19.2 16.96,-28.48 32.64,-28.48 19.2,0 32,16.96 32,42.88 0,8.96 -2.88,11.52 -13.12,11.52 z"
             style="font-family:C059;-inkscape-font-specification:C059;fill:#000000"
             id="path485" /></g><g
           id="g7516"
           transform="matrix(1.2,0,0,1.2,153.91589,-37.489337)"
           style="fill:#000000"><g
             id="g7617"
             transform="matrix(1.089353,0,0,1.089353,-58.920753,-123.65431)"
             style="fill:#000000"><path
               style="fill:#000000;stroke:none;stroke-width:0.661208"
               d="m -9.8918437,441.89368 c -2.4671303,-0.5047 -7.2506303,-1.76687 -10.6299203,-2.8049 -3.37924,-1.03802 -10.45454,-3.6282 -15.72277,-5.75593 -5.26823,-2.12774 -16.96614,-7.39207 -25.99537,-11.69853 -9.02924,-4.30648 -20.62255,-10.09364 -25.76295,-12.86038 -5.14042,-2.76681 -12.803356,-7.02741 -17.028746,-9.4681 -4.22543,-2.44067 -10.99204,-6.49857 -15.03698,-9.01755 -4.04492,-2.51896 -10.2162,-6.56725 -13.71398,-8.99619 -3.49776,-2.42894 -9.37714,-6.80229 -13.06528,-9.71856 -3.68814,-2.91624 -8.64435,-7.30426 -11.01385,-9.75109 -2.36949,-2.44685 -5.45492,-6.15701 -6.85661,-8.24477 -1.40169,-2.08775 -2.92206,-5.24124 -3.37857,-7.00775 -0.60382,-2.3363 -0.65037,-3.92906 -0.17064,-5.84303 0.36275,-1.44717 1.21631,-3.1531 1.89684,-3.79095 1.18886,-1.11426 1.57127,-0.88974 9.75491,5.72655 4.6847,3.78746 12.18068,9.52023 16.65775,12.7395 4.47709,3.21925 10.69836,7.49845 13.82512,9.5093 3.12674,2.01086 8.9914,5.54273 13.03261,7.84861 4.0412,2.30587 12.24004,6.70661 18.219656,9.77942 5.97959,3.07282 13.93364,6.96207 17.67564,8.6428 3.74202,1.68075 9.34657,3.82426 12.4546,4.76342 4.01599,1.21348 7.59468,1.77022 12.36918,1.92428 5.60833,0.18095 7.47764,-0.0285 11.31484,-1.26757 3.46633,-1.11935 5.09155,-2.06834 6.6096,-3.85948 1.71094,-2.01867 2.00391,-2.90148 1.95186,-5.88167 -0.0426,-2.4455 -1.00396,-6.07355 -3.17688,-11.9904 -1.71366,-4.66616 -3.13367,-9.2951 -3.15553,-10.28658 -0.0264,-1.19894 0.50686,-2.17473 1.59272,-2.91364 1.19125,-0.81061 2.39547,-1.0102 4.45402,-0.73818 1.55172,0.20507 4.4723,1.26645 6.49019,2.3586 2.09088,1.1317 6.86729,5.09439 11.1056,9.21353 4.09024,3.97525 9.5944003,10.16595 12.2314803,13.75709 2.63707998,3.59114 6.36256,9.19295 8.2788,12.44844 1.91625,3.2555 4.56202,8.46316 5.8794297,11.57266 1.31746,3.10946 2.94577,8.21753 3.61855,11.35124 1.00224,4.66859 1.10324,6.41175 0.55915,9.65142 -0.36529,2.17458 -1.28585,4.86 -2.04568,5.9675 -0.75982,1.10758 -2.60957,2.6787 -4.1106297,3.49143 -2.08274,1.12781 -4.13726,1.54753 -8.67565002,1.77239 -3.58785998,0.17782 -7.72593998,-0.0693 -10.43244998,-0.62293 z M -345.76267,437.24059 c -1.65413,-0.50324 -4.03097,-1.87489 -5.28194,-3.04814 -1.25098,-1.17325 -3.07461,-3.75599 -4.0525,-5.73937 -1.63023,-3.30634 -1.79058,-4.32345 -1.92875,-12.23483 l -0.1507,-8.62868 2.44587,-5.17444 c 1.34521,-2.84593 4.21729,-7.93968 6.38247,-11.31943 2.32354,-3.62701 6.87743,-9.20616 11.11349,-13.61555 3.94723,-4.10881 9.38206,-8.99838 12.07734,-10.86572 2.6953,-1.86736 7.11213,-4.55782 9.81523,-5.97885 2.70308,-1.42099 6.7995,-3.33094 9.10308,-4.24433 2.30358,-0.91339 4.33856,-1.5157 4.52209,-1.33846 0.18351,0.17721 -1.98903,3.12838 -4.82788,6.55809 -2.83889,3.42972 -7.10285,8.94806 -9.47548,12.26298 -2.37264,3.31493 -5.5981,8.68372 -7.16766,11.93066 -1.74301,3.60578 -2.83815,6.79489 -2.81373,8.19366 0.0221,1.25957 0.35243,2.85019 0.7343,3.5347 0.38185,0.6845 1.928,1.55377 3.43588,1.93168 2.0044,0.50235 3.86373,0.47147 6.91449,-0.11431 2.29509,-0.44109 6.17735,-1.45825 8.62726,-2.26033 2.44993,-0.80209 7.30619,-2.65111 10.79173,-4.10894 3.48555,-1.45781 11.0987,-4.96719 16.91809,-7.7986 5.81944,-2.83139 14.47355,-7.36996 19.23131,-10.08567 4.7578,-2.71571 12.47277,-7.59605 17.14439,-10.84521 4.67161,-3.24916 11.27874,-8.32283 14.68256,-11.27478 3.40377,-2.95198 8.82311,-7.88037 12.04293,-10.95193 3.21983,-3.07161 7.37132,-6.63292 9.22554,-7.91403 2.00655,-1.38638 3.98116,-2.25121 4.87799,-2.13641 1.01659,0.13012 1.68439,0.81725 2.05305,2.11233 0.4779,1.67898 0.0346,2.681 -3.53782,7.9975 -2.24633,3.34291 -6.45828,9.15974 -9.36002,12.92627 -2.90169,3.76653 -7.98969,9.95598 -11.30668,13.75432 -3.31703,3.79836 -9.43491,10.28943 -13.59528,14.42465 -4.16044,4.13518 -11.31126,10.64085 -15.89073,14.457 -4.57955,3.81616 -12.29654,9.64712 -17.14895,12.95768 -4.85239,3.31061 -13.3935,8.4055 -18.98023,11.32202 -5.58672,2.91657 -13.70552,6.63253 -18.04179,8.25775 -4.33625,1.62525 -11.43861,3.90412 -15.78298,5.06422 -4.53872,1.21194 -10.42778,2.27914 -13.84369,2.50863 -4.13274,0.27769 -6.86153,0.11986 -8.95228,-0.51559 z M -58.292254,330.28008 c -1.45713,-0.12753 -5.91923,-0.63571 -9.91576,-1.12923 -3.99661,-0.49353 -11.19724,-1.83191 -16.00138,-2.97417 -4.80419,-1.14228 -12.44278,-3.40352 -16.974716,-5.02498 -4.53196,-1.62146 -12.59115,-5.02077 -17.90933,-7.55398 -5.31819,-2.53322 -12.073,-6.0372 -15.01071,-7.78661 -2.97238,-1.77006 -5.455,-3.72031 -5.59764,-4.39732 -0.14104,-0.66911 0.14019,-1.48243 0.62494,-1.80736 0.4848,-0.32495 1.95659,-0.90908 3.27076,-1.29809 2.11924,-0.62734 3.73234,-0.28938 14.27037,2.9897 6.53454,2.03335 16.51078,4.67671 22.169346,5.87414 5.65859,1.19744 14.46419,2.72787 19.56802,3.40096 5.49293,0.72444 14.40812,1.2839 21.84715,1.37099 9.60833,0.11248 14.50879,-0.14302 20.8123,-1.0852 4.53466,-0.67779 11.17242,-2.02434 14.75055,-2.99233 3.57809,-0.96797 9.27028,-2.95516 12.6491703,-4.41595 3.37898,-1.46081 8.65402,-4.29857 11.7223,-6.30615 3.06833,-2.00758 7.43426,-5.31928 9.7021397,-7.35937 2.26788,-2.04006 5.78925,-5.67263 7.82529,-8.07237 2.03601,-2.39974 4.54399,-5.86582 5.57321,-7.7024 1.11007,-1.98079 1.85717,-4.29754 1.83641,-5.69482 -0.0247,-1.72172 -0.53214,-2.8046 -1.88266,-4.02425 -1.01624,-0.91777 -4.2515,-2.98752 -7.18942,-4.59944 -2.93789,-1.6119 -7.58834,-3.77676 -10.3342897,-4.81079 -2.74595,-1.03402 -7.68017002,-2.60803 -10.96485,-3.49777 -3.28468,-0.88977 -8.8104203,-2.05319 -12.2793703,-2.58542 -4.11428,-0.63122 -10.21492,-0.90292 -17.54621,-0.7814 -8.77268,0.1457 -13.11924,0.54958 -19.80714,1.84183 -4.71244,0.91056 -11.97123,2.75148 -16.13061,4.09091 -4.15938,1.33945 -10.81171,3.82759 -14.78291,5.52919 -3.97119,1.70159 -10.51626,4.89352 -14.54456,7.09315 -4.028346,2.19963 -10.205006,5.88091 -13.725946,8.18059 -3.52093,2.29969 -9.49407,6.51301 -13.27362,9.36299 -3.77958,2.84994 -10.45488,8.30115 -14.83399,12.11377 -4.41048,3.83996 -8.5646,6.9426 -9.31286,6.95566 -0.90214,0.0158 -1.74493,-0.76691 -2.53716,-2.35622 l -1.18628,-2.3798 3.9018,-3.67423 c 2.14599,-2.02082 7.27633,-6.4089 11.40073,-9.75129 4.12443,-3.3424 12.49745,-9.54086 18.60675,-13.77434 6.10931,-4.23348 14.93767,-9.92045 19.618566,-12.63769 4.6809,-2.71722 11.31388,-6.31185 14.73994,-7.98805 3.42607,-1.67619 10.21808,-4.68403 15.09337,-6.68412 4.87531,-2.00007 11.52812,-4.45811 14.78408,-5.46234 3.25594,-1.00421 8.43839,-2.45604 11.51655,-3.22631 3.07817,-0.77023 8.71276,-1.89297 12.5213,-2.49495 3.80856,-0.602 10.04502,-1.3418 13.85879,-1.644 3.81382,-0.30222 10.8074403,-0.28478 15.5414703,0.0389 4.73405,0.32361 11.4437,1.12131 14.9104297,1.77266 3.4667,0.6513 9.14532,2.04972 12.61912,3.10755 3.47384,1.05783 9.71761,3.47207 13.8751,5.36496 4.15748,1.89289 10.46602,5.27905 14.01894,7.52482 3.55293,2.24572 8.79079,5.89736 11.63972,8.11473 2.84899,2.21733 5.7953,4.78644 6.54751,5.70911 0.89056,1.09236 1.38495,2.66747 1.41723,4.51537 0.04,2.27835 -0.28924,3.114 -1.66842,4.23847 -0.9449,0.77034 -2.40225,1.41258 -3.23859,1.42719 -0.83633,0.0146 -2.25888,0.3221 -3.16121,0.68333 -0.90233,0.36125 -5.97135,5.16244 -11.26429,10.66936 -5.29308,5.50692 -11.9854,11.85488 -14.87195,14.10659 -2.88649,2.25167 -7.77426,5.80413 -10.86174,7.89433 -3.08744,2.09022 -8.73346,5.4695 -12.54674,7.50954 -3.81332,2.04005 -10.0585097,4.97945 -13.8781197,6.53202 -3.81967,1.55256 -10.26389,3.77069 -14.3204603,4.92915 -4.05657,1.15846 -10.34248,2.62046 -13.96868,3.24891 -3.62624,0.62843 -11.64875,1.33861 -17.82781,1.57818 -6.17903,0.23958 -12.42682,0.33121 -13.88393,0.20368 z m -232.802686,-1.2435 c -2.5476,-0.0889 -8.80508,-0.55261 -13.9055,-1.03044 -5.10043,-0.47784 -12.85562,-1.53136 -17.23373,-2.34114 -4.37812,-0.80984 -10.55395,-2.16979 -13.72396,-3.02212 -3.17008,-0.85236 -9.29059,-2.7324 -13.60119,-4.17788 -4.31057,-1.44549 -12.80236,-4.99006 -18.87054,-7.87685 -6.06822,-2.88677 -14.64474,-7.56901 -19.0589,-10.40498 -4.41419,-2.83594 -10.58966,-7.12473 -13.72333,-9.53062 -3.13364,-2.4059 -10.09491,-8.63369 -15.46951,-13.83954 -6.08347,-5.89246 -12.45492,-12.9129 -16.87991,-18.59932 -3.90939,-5.02382 -8.24542,-10.93881 -9.63559,-13.14443 -1.39019,-2.20561 -2.53264,-4.29931 -2.5388,-4.65265 -0.006,-0.35333 4.50914,-1.66603 10.03402,-2.91711 5.52488,-1.25108 14.94158,-3.06922 20.92601,-4.04029 5.98443,-0.97107 14.89054,-2.20552 19.79138,-2.74325 4.90082,-0.53774 16.34813,-1.10386 25.43843,-1.25801 10.75056,-0.1824 20.01345,0.0369 26.49944,0.62754 5.48437,0.49929 13.38728,1.46018 17.56201,2.13529 4.17474,0.67509 11.02679,2.03482 15.22682,3.02161 4.20001,0.9868 11.07784,2.89242 15.28405,4.23474 4.20624,1.3423 10.29101,3.48492 13.5217,4.76134 3.2307,1.2764 8.26601,3.47156 11.18957,4.8781 2.92359,1.40653 8.5344,4.39346 12.46848,6.63759 3.93408,2.24415 10.76947,6.68552 15.18974,9.8697 4.42026,3.18417 10.39069,7.91294 13.26759,10.50836 2.87694,2.59542 5.12738,4.82601 5.00105,4.95687 -0.12633,0.13083 -4.79738,-1.76759 -10.38004,-4.21878 -5.58264,-2.45118 -14.40632,-6.18382 -19.60816,-8.29474 -5.20179,-2.11094 -14.25064,-5.63436 -20.10851,-7.82983 -5.85788,-2.19546 -15.44016,-5.59914 -21.294,-7.56375 -5.85385,-1.96459 -16.17481,-5.06315 -22.93545,-6.88566 -6.76067,-1.82253 -16.02405,-4.00511 -20.58532,-4.85018 -4.56125,-0.84507 -11.57172,-1.82504 -15.5788,-2.17768 -4.00709,-0.35263 -9.45153,-0.40669 -12.09876,-0.12012 -2.64724,0.28655 -6.75255,1.15733 -9.12288,1.93503 -3.17861,1.04293 -5.02116,2.15194 -7.02083,4.22573 -1.55809,1.6159 -3.03668,3.97501 -3.47667,5.54702 -0.42105,1.50444 -0.73421,4.52885 -0.69593,6.72092 0.0383,2.19208 0.68696,5.86608 1.44153,8.16447 0.75454,2.29839 2.32835,5.65013 3.49731,7.44831 1.16903,1.79817 3.83916,4.9785 5.93365,7.06735 2.09448,2.08885 6.03786,5.25964 8.76314,7.04619 2.72521,1.78654 8.02306,4.64862 11.773,6.36013 3.74992,1.71153 11.26586,4.48846 16.70212,6.17097 5.43619,1.68251 14.065,3.90199 19.17507,4.93215 5.11007,1.03016 12.72264,2.40601 16.91679,3.05743 4.19417,0.65142 12.24735,1.69779 17.89598,2.32526 5.64862,0.62747 15.33557,1.50311 21.52654,1.94586 6.19099,0.44276 16.02138,1.01235 21.84532,1.26576 5.82395,0.25341 15.5013,0.58021 21.50526,0.72623 6.00392,0.146 11.66361,0.45951 12.57704,0.69664 1.4258,0.37018 1.00959,0.64952 -2.9414,1.97412 -2.53123,0.84859 -7.98159,2.48296 -12.1119,3.63191 -4.13031,1.14894 -11.3911,2.87441 -16.13512,3.83439 -4.74399,0.95994 -12.63384,2.26388 -17.53299,2.8976 -4.89916,0.63373 -13.66536,1.36017 -19.48046,1.61432 -5.81507,0.25419 -12.65727,0.38938 -15.20486,0.30039 z m 102.82827,-13.92971 c -0.78373,-0.30052 -3.30724,-2.69268 -5.60786,-5.31595 -2.30058,-2.62329 -6.42305,-8.00397 -9.16098,-11.95705 -2.73792,-3.95311 -6.81965,-10.72638 -9.07059,-15.05171 -2.25091,-4.32533 -5.18991,-10.85573 -6.53111,-14.51199 -1.34117,-3.65627 -3.26516,-10.05384 -4.27551,-14.21682 -1.01033,-4.16297 -2.16612,-11.34411 -2.56844,-15.95806 -0.42926,-4.92268 -0.54281,-11.70187 -0.27494,-16.40649 0.25122,-4.4096 0.98713,-10.79956 1.63545,-14.19991 0.64833,-3.40034 2.2277,-9.53461 3.50974,-13.63169 1.28202,-4.09712 4.2599,-11.51598 6.61748,-16.48641 2.35756,-4.9704 6.32586,-12.1974 8.81837,-16.05998 2.49247,-3.86259 6.5005,-9.58681 8.90666,-12.72045 2.40622,-3.13366 8.33039,-9.8961 13.16482,-15.02766 4.83444,-5.13156 9.7312,-9.75157 10.88164,-10.2667 1.17007,-0.52393 2.96644,-0.77752 4.07684,-0.57555 1.09176,0.1986 2.59182,0.98702 3.33345,1.75208 0.74163,0.76505 3.04533,4.65362 5.1193,8.64125 2.07392,3.98766 5.15214,10.48086 6.84044,14.42933 1.68828,3.9485 4.21976,10.5581 5.62552,14.68799 1.40577,4.12992 3.30892,10.49485 4.22926,14.14431 0.92032,3.64946 2.20938,9.70807 2.86459,13.4636 0.65527,3.75553 1.43291,10.58648 1.72818,15.17994 0.30977,4.81991 0.26202,11.43274 -0.11294,15.63746 -0.35739,4.00716 -1.1705,9.69479 -1.80693,12.63914 -0.63645,2.94439 -1.77518,7.27932 -2.53047,9.63321 -0.75524,2.35387 -2.76772,7.13124 -4.47213,10.61634 -1.70438,3.48512 -4.96946,8.91385 -7.25573,12.06387 -2.28625,3.15 -6.25276,7.77478 -8.81432,10.27726 -2.56164,2.50248 -5.38259,4.89573 -6.26876,5.31835 -1.27917,0.61002 -1.81871,0.56802 -2.61794,-0.20375 -0.5537,-0.53466 -1.19059,-1.99225 -1.41533,-3.23902 -0.33813,-1.87589 -0.0107,-2.84332 1.89998,-5.60853 1.26967,-1.8379 3.8663,-6.04713 5.77023,-9.35386 1.9039,-3.30672 4.33359,-8.11601 5.3993,-10.68727 1.06566,-2.57127 2.63014,-6.92928 3.47659,-9.68449 0.84648,-2.75521 2.03635,-7.532 2.6442,-10.61511 0.80867,-4.10187 1.05555,-8.4433 0.92037,-16.1834 -0.13383,-7.66297 -0.53576,-12.07828 -1.45874,-16.0233 -0.70067,-2.99506 -2.14808,-7.88 -3.21641,-10.85543 -1.06834,-2.97541 -2.89591,-7.41065 -4.06131,-9.85603 -1.1654,-2.4454 -3.67288,-6.92022 -5.57222,-9.94406 -1.89929,-3.02385 -4.37386,-6.24539 -5.49894,-7.15901 -1.3857,-1.12527 -2.82901,-1.64666 -4.474,-1.61627 -1.33564,0.0242 -3.45864,0.6951 -4.71777,1.4898 -1.25914,0.79471 -4.79896,4.0545 -7.8663,7.244 -3.06727,3.18951 -7.03455,8.05882 -8.81612,10.82072 -1.78155,2.76192 -4.38967,7.4201 -5.79578,10.35153 -1.40611,2.93142 -3.28124,7.46346 -4.16692,10.07117 -0.88569,2.60769 -2.05582,7.09198 -2.60027,9.96505 -0.54444,2.87308 -1.18196,8.25841 -1.41675,11.96739 -0.23479,3.70898 -0.11371,10.14001 0.26895,14.29119 0.38281,4.15118 1.38386,10.6253 2.22461,14.3869 0.84072,3.76164 2.88383,10.68431 4.5402,15.38375 1.65644,4.69943 4.61009,11.92313 6.56364,16.05267 1.95355,4.12956 5.72934,11.20575 8.39058,15.72489 2.66121,4.51915 5.54809,9.51943 6.41522,11.11174 0.86718,1.59231 1.5914,3.73717 1.60939,4.76638 0.0281,1.61082 -0.22045,1.86986 -1.78609,1.86114 -1.00035,-0.004 -2.45999,-0.256 -3.24371,-0.55649 z m 69.53156,-69.69877 c -0.22603,-0.55955 0.16964,-2.724 0.87937,-4.80986 0.70962,-2.08587 3.26385,-8.89002 5.67599,-15.12033 2.41222,-6.23033 5.99351,-16.41092 7.95848,-22.62352 1.96499,-6.21262 4.639496,-15.77817 5.943306,-21.25674 1.30389,-5.47859 2.80869,-12.79578 3.34401,-16.26049 0.53533,-3.46469 1.08743,-9.87248 1.2269,-14.23957 0.15994,-5.0102 -0.0723,-9.67989 -0.62921,-12.65481 -0.48551,-2.59308 -1.73722,-6.43988 -2.78148,-8.54845 -1.04434,-2.10857 -3.108236,-4.88657 -4.586556,-6.17327 -1.47827,-1.28672 -4.07607,-2.84205 -5.7728,-3.45633 -2.05334,-0.74336 -4.15986,-0.99459 -6.29898,-0.75129 -1.76769,0.20107 -4.51131,1.02761 -6.097,1.83671 -1.58566,0.80912 -4.50182,2.8381 -6.48034,4.50878 -1.97855,1.67071 -6.02403,5.88655 -8.98998,9.36855 -2.96596,3.48203 -6.24636,6.70214 -7.2897,7.15581 -1.04338,0.45368 -2.35166,0.65947 -2.90728,0.45732 -0.55567,-0.20216 -1.02394,-1.14929 -1.04063,-2.10471 -0.0166,-0.95542 2.38348,-6.88408 5.33367,-13.17477 2.95022,-6.29071 6.85959,-14.14205 8.68747,-17.44747 1.8279,-3.30541 5.52709,-9.47061 8.22048,-13.700405 2.87573,-4.51627 7.19928,-10.10747 10.47474,-13.54603 3.31273,-3.47761 6.76436,-6.41891 8.49984,-7.24301 1.60717,-0.76318 4.2011,-1.41646 5.764356,-1.45173 1.56328,-0.0348 3.65298,0.34149 4.6438,0.83726 0.99079,0.49584 2.61437,1.73223 3.60792,2.74759 0.99355,1.01534 2.87911,3.56393 4.19005,5.6635 1.31095,2.0996 3.36251,6.3788 4.55899,9.50936 1.19654,3.13057 2.94002,8.654485 3.87444,12.275355 0.9344,3.62089 2.21518,10.08632 2.84612,14.36764 0.67363,4.57084 1.23652,12.89771 1.36357,20.17126 0.11897,6.81289 -0.1497,15.80441 -0.59713,19.98118 -0.44741,4.17679 -1.26076,9.98266 -1.80743,12.90198 -0.54672,2.91931 -1.69197,7.99832 -2.54505,11.28672 -0.85309,3.28836 -2.66914,8.99992 -4.03578,12.69234 -1.36657,3.69243 -3.79087,9.38897 -5.38725,12.65899 -1.59638,3.27002 -5.0354,9.25624 -7.64227,13.30266 -2.60684,4.04647 -7.114786,10.16354 -10.017626,13.59352 -2.90285,3.42995 -6.47778,7.13787 -7.94432,8.23978 -1.46655,1.10192 -2.92866,2.00806 -3.24912,2.01367 -0.32048,0.004 -0.76761,-0.44765 -0.99357,-1.00719 z m -134.92198,-5.06082 c -0.38497,-0.26048 -2.13236,-3.57328 -3.883,-7.36179 -1.75071,-3.78847 -4.48291,-9.99014 -6.07165,-13.78146 -1.58877,-3.7913 -4.53718,-11.18208 -6.55205,-16.42394 -2.01484,-5.24183 -5.10181,-14.1156 -6.85993,-19.71946 -1.7581,-5.60388 -4.00857,-13.38015 -5.00098,-17.28066 -0.99247,-3.90047 -2.52048,-10.86712 -3.39564,-15.48145 -1.25312,-6.60741 -1.6446,-11.1282 -1.84287,-21.2808 -0.20528,-10.52258 -0.041,-13.74538 0.89563,-17.54034 0.63109,-2.55709 1.9497,-6.51947 2.93019,-8.80535 1.01093,-2.35677 3.27497,-5.790115 5.22939,-7.930315 1.89565,-2.0758 4.52724,-4.34948 5.84805,-5.05263 1.32075,-0.70316 3.56543,-1.48548 4.98804,-1.73853 1.57887,-0.28083 4.24523,-0.0666 6.8436,0.5516 2.34126,0.55644 6.21157,2.04124 8.60054,3.29957 2.38904,1.25835 6.76324,4.10909 9.72053,6.33501 2.95723,2.225965 8.51209,7.079125 12.34406,10.784855 3.83203,3.70572 9.45263,9.67018 12.49024,13.25432 3.03767,3.58415 6.16449,7.40825 6.94856,8.498 0.78403,1.08974 1.64241,3.03537 1.90745,4.32361 0.31316,1.52203 0.14257,3.19619 -0.48728,4.78067 -0.82465,2.07481 -1.27937,2.44385 -3.04944,2.47477 -1.14416,0.02 -2.96208,-0.56864 -4.03981,-1.30803 -1.07772,-0.73941 -3.66857,-3.59565 -5.75738,-6.34723 -2.08886,-2.75155 -6.74504,-7.81551 -10.34705,-11.25322 -4.78642,-4.56805 -7.75866,-6.8198 -11.04301,-8.36601 -3.16032,-1.48781 -5.41764,-2.09948 -7.60699,-2.06124 -2.09623,0.0367 -3.90954,0.566 -5.55106,1.62053 -1.34081,0.86139 -3.4447,3.1129 -4.67526,5.00335 -1.23062,1.89042 -3.04678,6.1296 -4.03594,9.42033 -0.98916,3.29077 -2.2228,8.81772 -2.74138,12.28212 -0.51857,3.46439 -1.07173,9.72344 -1.22927,13.90897 -0.16165,4.29627 0.13276,11.76768 0.67613,17.15799 0.52941,5.25133 1.76418,13.71106 2.74396,18.79938 0.97974,5.0883 2.89807,13.24944 4.26293,18.13583 1.36488,4.88637 3.70913,12.31266 5.20952,16.50283 1.50035,4.19016 3.41945,9.06688 4.26461,10.83713 0.84516,1.77024 1.65263,3.43978 1.79434,3.71011 0.1418,0.27031 -0.43651,0.49905 -1.28503,0.50829 -0.8485,0.01 -1.85773,-0.19631 -2.24275,-0.45681 z m 32.79199,-133.13701 c -0.58012,-0.79822 -1.07443,-2.57709 -1.09848,-3.95301 -0.0241,-1.37592 0.35909,-5.557035 0.85141,-9.291365 0.49233,-3.73434 1.59842,-10.22426 2.45793,-14.42207 0.85962,-4.19779 2.54805,-10.77426 3.75207,-14.61434 1.20409,-3.84009 3.45416,-9.54603 5.00024,-12.67985 1.54608,-3.13381 4.20278,-7.4885 5.90374,-9.67707 1.70103,-2.18854 4.55298,-5.13234 6.33771,-6.54171 1.78472,-1.40941 5.12538,-3.18567 7.42363,-3.94723 2.29825,-0.7616 5.72957,-1.41178 7.62514,-1.44489 1.89555,-0.0331 4.92138,0.36202 6.7241,0.87805 1.80269,0.51603 4.71492,1.96029 6.47163,3.20944 1.75665,1.24915 4.59148,4.09956 6.2996,6.33421 1.70813,2.23466 4.19315,6.12715 5.52226,8.64997 1.32914,2.52284 3.60972,7.60007 5.06797,11.28276 2.04146,5.15538 3.24676,9.95151 5.2393,20.8478 1.42334,7.7836 3.05609,15.40867 3.62832,16.94458 0.5723,1.535915 1.37736,3.184365 1.78913,3.663235 0.41177,0.47886 0.48902,0.87369 0.17178,0.87744 -0.31728,0.004 -1.36407,-0.64757 -2.32624,-1.44731 -0.96223,-0.79978 -2.81733,-2.774625 -4.12244,-4.388555 -1.30513,-1.61395 -4.29716,-6.02553 -6.64909,-9.80351 -2.35191,-3.77799 -5.42089,-8.50152 -6.81996,-10.49678 -1.39907,-1.99522 -4.34883,-5.24121 -6.55495,-7.21328 -2.20614,-1.97209 -5.47385,-4.25544 -7.26163,-5.07411 -1.7877,-0.8187 -4.97366,-1.59391 -7.07986,-1.72272 -2.62325,-0.16041 -4.7411,0.13248 -6.72384,0.9295 -1.88023,0.75596 -4.22973,2.64208 -6.70534,5.38296 -2.30514,2.55209 -4.97073,6.56771 -6.74603,10.16276 -1.61432,3.26891 -4.53689,9.8027 -6.49461,14.51951 -1.95769,4.7168 -4.17823,9.517015 -4.93458,10.667135 -0.75634,1.15011 -1.82565,2.47097 -2.37624,2.93522 -0.55059,0.46428 -1.52235,0.85323 -2.15944,0.86436 -0.6371,0.0112 -1.63304,-0.63287 -2.21323,-1.43113 z"
               id="path7497" /></g></g></g></g></g></svg>
