<!--
Copyright 2023 ZORALab Enterprise <tech@zoralab.com>


Prestige Web Demo Proprietary License

Licensed under ZORALab Proprietary License (the “License”); you may ONLY use
this file except in compliance with the License. You may obtain a copy of the
License at:

        https://www.zoralab.com/docs/legal/zoralab-proprietary-license

All information contained herein is, and remains the property of ZORALab
Enterprise and its suppliers, if any. The intellectual and technical concepts
contained herein are proprietary to ZORALab Enterprise and its suppliers and
may be covered by Malaysia Patent Law, patents in process, and are protected by
trade secret or copyright law. Dissemination of this information or reproduction
of this material is strictly forbidden unless prior written permission is
obtained from ZORALab Enterprise.
-->
<svg width="1200" height="630" preserveAspectRatio="xMidYMid" version="1.1" viewBox="0 0 1200 630" xmlns="http://www.w3.org/2000/svg">
 <g fill-rule="evenodd">
  <g transform="matrix(1.0304 0 0 1.0304 -18.245 -9.5788)">
   <path d="m402.42 429.72c-47.322-5.496-73.273-31.125-81.895-80.878-2.0702-11.945-2.3432-48.326-0.4616-61.512 7.1407-50.042 29.319-77.265 70.183-86.145 11.693-2.541 44.939-2.5038 59.5 0.0666 11.464 2.0236 23.93 5.875 27.324 8.4415l2.3246 1.7577-4.2003 17.939c-2.3101 9.8667-4.7629 18.543-5.4505 19.28-1.0409 1.1158-2.9883 0.89222-11.624-1.3342-12.673-3.2673-36.83-4.5393-48.573-2.5576-20.423 3.4468-33.642 16.452-39.346 38.71-4.4911 17.528-4.4756 47.17 0.034 64.802 3.6515 14.277 11.762 26.367 21.535 32.104 7.5378 4.4243 15.459 5.7346 31.563 5.2209 8.0229-0.25593 15.11-0.78871 15.75-1.184 0.8265-0.51084 1.1628-7.0632 1.1628-22.66v-21.941h-14.965c-13.772 0-15.047-0.1542-16-1.9343-0.6004-1.1219-1.0351-9.2816-1.0351-19.429 0-14.571 0.2626-17.757 1.5714-19.066 1.3712-1.3712 6.2224-1.5714 38.066-1.5714 23.244 0 37.197 0.37585 38.429 1.0352 1.8773 1.0047 1.9343 2.6986 1.9343 57.522v56.487l-4.7071 2.9852c-18.143 11.506-51.831 17.262-81.119 13.86zm519.83 0.46067c-13.832-1.8555-23.703-6.0011-30.519-12.816-5.3786-5.3786-8.0442-10.505-10.543-20.275-1.804-7.0536-1.9384-11.443-1.9384-63.312 0-49.899 0.16559-55.797 1.5818-56.34 2.2828-0.876 42.694-0.71898 44.094 0.17133 0.86819 0.5522 1.2604 13.948 1.5 51.235 0.30935 48.138 0.41752 50.673 2.3244 54.474 1.1 2.1928 3.575 5.0462 5.5 6.341 3.1897 2.1454 4.3423 2.3212 13 1.9818 8.12-0.31827 10.481-0.83229 16.25-3.5384l6.75-3.1661v-52.853c0-39.774 0.29694-53.149 1.2-54.053 1.6988-1.6988 42.901-1.6988 44.6 0 1.7365 1.7365 1.7365 145.86 0 147.6-0.8168 0.81679-5.5841 1.2-14.929 1.2-15.429 0-16.871-0.56192-16.871-6.5714 0-1.8857-0.25157-3.4286-0.55904-3.4286-0.30748 0-4.245 1.7762-8.75 3.9472-12.959 6.245-24.25 9.095-37.691 9.5141-6.325 0.19719-13.075 0.14724-15-0.11099zm192.5 0.0425c-14.157-2.0819-28.747-7.2931-36.08-12.886-3.5498-2.7076-4.4039-2.0672-4.4348 3.3254-0.031 5.4246-0.6609 5.6424-17.307 5.9866-13.218 0.27328-15.631 0.0862-17.038-1.3214-1.4993-1.4993-1.6398-10.798-1.6398-108.5 0-95.81 0.1624-107.02 1.5714-108.43 1.3263-1.3263 4.7679-1.5714 22.066-1.5714 12.215 0 21.276 0.4182 22.429 1.0352 1.8581 0.9944 1.9343 2.4718 1.9343 37.5 0 20.056 0.169 36.465 0.3755 36.465 0.2066 0 2.968-1.1465 6.1364-2.5477 13.939-6.1645 35.692-8.3477 49.028-4.9206 31.12 7.9973 44.739 40.538 39.362 94.045-3.5507 35.334-15.532 53.923-38.635 59.943-5.9273 1.5444-22.432 2.658-27.767 1.8735zm8.5381-40.643c3.5363-1.7832 5.0269-3.3909 7.1854-7.75 3.5171-7.1023 5.1986-20.628 4.4757-36-0.8585-18.253-4.7336-27.845-13.033-32.262-7.4491-3.964-22.932-2.6295-33.916 2.9232l-2.75 1.3902v67.702l4.9452 2.1274c7.0831 3.047 11.477 3.9045 20.593 4.0184 6.4818 0.081 8.902-0.33518 12.5-2.1496zm-489.64 38.764c-7.8329-1.7041-15.429-5.5767-20.985-10.698-5.2627-4.8509-7.7142-8.6409-10.65-16.465-2.0857-5.5579-2.2225-7.8302-2.7309-45.351l-0.5352-39.5-24-1-0.2778-14.922c-0.1595-8.5723 0.1296-15.33 0.6793-15.879 0.5264-0.52637 6.0514-2.1518 12.278-3.6121l11.321-2.6551 0.2704-21.419c0.1971-15.604 0.6043-21.631 1.5-22.2 1.4381-0.91351 40.814-1.1003 43.148-0.20468 1.3724 0.52666 1.5818 3.3687 1.5818 21.476v20.869l33.5 0.54836v38l-33 1v32.678c0 37.145-0.2223 36.091 8.5585 40.605 3.808 1.9575 5.8177 2.2611 14.09 2.1285 5.3069-0.0851 10.144 0.15157 10.75 0.52586 1.7047 1.0535 1.4978 31.988-0.2234 33.417-4.516 3.7479-32.67 5.402-45.274 2.6599zm68.348-2.5944c-1.6496-0.96078-1.75-7.2131-1.75-108.93 0-105.67 0.04-107.94 1.9342-108.95 2.5769-1.3791 40.555-1.3791 43.132 0 1.8628 0.99695 1.9343 2.5114 1.9343 41v39.965h64v-39.965c0-38.489 0.0715-40.003 1.9343-41 2.4528-1.3127 41.998-1.3632 44.066-0.0564 1.3182 0.83331 1.5 14.044 1.5 109.02s-0.18177 108.19-1.5 109.02c-2.0674 1.3069-41.613 1.2563-44.066-0.0563-1.8697-1.0007-1.9343-2.5851-1.9343-47.5v-46.465h-64v46.465c0 44.915-0.0645 46.499-1.9343 47.5-2.551 1.3653-40.963 1.3254-43.316-0.0449zm-189.55-1.1199c-1.7364-1.7364-1.7364-144.86 0-146.6 0.8598-0.85982 7.3699-1.2 22.965-1.2 20.495 0 21.825 0.11287 22.8 1.9343 0.6855 1.281 1.0352 25.79 1.0352 72.566s-0.3497 71.285-1.0352 72.566c-0.9748 1.8214-2.3052 1.9343-22.8 1.9343-15.595 0-22.105-0.34018-22.965-1.2zm15.794-160.73c-10.55-3.209-17.729-12.06-18.729-23.089-2.2907-25.262 28.762-38.523 45.549-19.452 4.4829 5.0928 6.1873 10.016 6.1873 17.874 0 10.211-4.8326 17.863-14.255 22.572-6.2053 3.1008-12.964 3.8563-18.751 2.0959z"/>
   <g transform="matrix(.93012 0 0 .93012 -818.25 -136.45)">
    <g id="logo-foreground" transform="matrix(.28974 0 0 .28974 898.76 340.68)" fill="none" style="fill:#000">
     <path transform="scale(64)" d="m8 0c-4.42 0-8 3.58-8 8 0 3.54 2.29 6.53 5.47 7.59 0.4 0.07 0.55-0.17 0.55-0.38 0-0.19-0.01-0.82-0.01-1.49-2.01 0.37-2.53-0.49-2.69-0.94-0.09-0.23-0.48-0.94-0.82-1.13-0.28-0.15-0.68-0.52-0.01-0.53 0.63-0.01 1.08 0.58 1.23 0.82 0.72 1.21 1.87 0.87 2.33 0.66 0.07-0.52 0.28-0.87 0.51-1.07-1.78-0.2-3.64-0.89-3.64-3.95 0-0.87 0.31-1.59 0.82-2.15-0.08-0.2-0.36-1.02 0.08-2.12 0 0 0.67-0.21 2.2 0.82 0.64-0.18 1.32-0.27 2-0.27s1.36 0.09 2 0.27c1.53-1.04 2.2-0.82 2.2-0.82 0.44 1.1 0.16 1.92 0.08 2.12 0.51 0.56 0.82 1.27 0.82 2.15 0 3.07-1.87 3.75-3.65 3.95 0.29 0.25 0.54 0.73 0.54 1.48 0 1.07-0.01 1.93-0.01 2.2 0 0.21 0.15 0.46 0.55 0.38 3.16-1.06 5.45-4.06 5.45-7.59 0-4.42-3.58-8-8-8z" clip-rule="evenodd" fill="#1b1f23" fill-rule="evenodd" style="fill:#000"/>
    </g>
   </g>
  </g>
 </g>
</svg>
