<!--
Copyright 2023 ZORALab Enterprise <tech@zoralab.com>


Prestige Web Demo Proprietary License

Licensed under ZORALab Proprietary License (the “License”); you may ONLY use
this file except in compliance with the License. You may obtain a copy of the
License at:

        https://www.zoralab.com/docs/legal/zoralab-proprietary-license

All information contained herein is, and remains the property of ZORALab
Enterprise and its suppliers, if any. The intellectual and technical concepts
contained herein are proprietary to ZORALab Enterprise and its suppliers and
may be covered by Malaysia Patent Law, patents in process, and are protected by
trade secret or copyright law. Dissemination of this information or reproduction
of this material is strictly forbidden unless prior written permission is
obtained from ZORALab Enterprise.
-->
<svg width="1200" height="630" preserveAspectRatio="xMidYMid" version="1.1" viewBox="0 0 1200 630" xmlns="http://www.w3.org/2000/svg">
 <defs/>
 <g fill-rule="evenodd">
  <g transform="matrix(2.6667 0 0 2.6667 -.00030983 108.51)">
   <g transform="matrix(4.1321 0 0 4.1321 -136.78 65.665)">
    <g fill="#757575">
     <path d="m74.093 7.228 2.388 6.27h-4.627l2.24-6.27zm-0.896-2.1-5.224 13.73h1.94l1.343-3.73h5.82l1.343 3.73h1.94l-5.224-13.73h-1.94zm28.2 13.742h1.8v-13.732h-1.8v13.73zm-18.35-8.07c0.597-0.896 1.8-1.642 2.985-1.642 2.388 0 3.582 1.642 3.582 4.03v5.82h-1.8v-5.522c0-1.94-1.045-2.687-2.388-2.687-1.493 0-2.537 1.493-2.537 2.836v5.224h-1.8v-9.539h1.8l0.15 1.493zm8.06 5.234c0-2.1 1.94-3.284 4.18-3.284 1.343 0 2.24 0.3 2.537 0.597v-0.3c0-1.493-1.194-2.24-2.388-2.24-1.045 0-1.94 0.448-2.24 1.343l-1.642-0.746c0.3-0.896 1.493-2.24 3.88-2.24 2.24 0 4.18 1.343 4.18 4.03v5.672h-1.642v-1.343h-0.15c-0.448 0.746-1.493 1.642-3.134 1.642-1.94 0-3.582-1.194-3.582-3.134m6.716-1.194s-0.746-0.597-2.24-0.597c-1.8 0-2.537 1.045-2.537 1.8 0 1.045 1.045 1.493 1.94 1.493 1.343 0 2.836-1.194 2.836-2.687"/>
     <path d="m105.74 23.05 2.1-4.925-3.73-8.657h1.8l2.836 6.567 2.836-6.567h1.8l-5.82 13.582h-1.8zm26.27-10.45c-0.448-1.194-1.493-1.94-2.537-1.94-1.493 0-2.836 1.343-2.836 3.284s1.343 3.284 2.836 3.284c1.045 0 2.1-0.746 2.537-1.8l1.493 0.896c-0.746 1.642-2.24 2.687-4.03 2.687-2.537 0-4.627-2.24-4.627-5.075 0-2.985 2.1-5.075 4.627-5.075 1.8 0 3.284 1.045 4.03 2.687l-1.493 1.045z" fill-rule="evenodd"/>
     <path d="m138.42 19.168c2.388 0 3.582-1.343 3.582-2.985 0-3.582-5.224-2.24-5.224-4.328 0-0.746 0.597-1.194 1.642-1.194s2.1 0.448 2.537 1.194l1.045-1.045c-0.597-0.746-2.24-1.8-3.73-1.8-2.24 0-3.433 1.343-3.433 2.985 0 3.433 5.373 2.24 5.373 4.03 0 0.896-0.597 1.493-1.8 1.493s-1.8-0.746-2.388-1.493l-1.326 1.055c0.896 0.896 2.24 2.1 3.73 2.1zm-17.015-0.298h1.8v-9.552h-1.8z"/>
     <path d="m122.15 4.7c0.746 0 1.194 0.597 1.194 1.194 0 0.746-0.597 1.194-1.194 1.194s-1.194-0.597-1.194-1.194 0.597-1.194 1.194-1.194zm-2.537 12.687 0.3 1.343h-1.8c-1.642 0-2.388-1.194-2.388-2.985v-4.645h-1.8v-1.8h1.8v-2.818h1.8v2.836h2.1v1.8h-2.1v4.925c0 1.343 1.045 1.343 2.1 1.343z" fill-rule="evenodd"/>
     <path d="m77.048-10.042v2.24h5.224c-0.15 1.194-0.597 2.1-1.194 2.687-0.746 0.746-1.94 1.642-4.03 1.642-3.134 0-5.672-2.537-5.672-5.82 0-3.134 2.537-5.82 5.672-5.82 1.8 0 2.985 0.746 3.88 1.493l1.493-1.493c-1.343-1.194-2.985-2.24-5.373-2.24-4.328 0-8.06 3.582-8.06 7.9s3.73 7.9 8.06 7.9c2.388 0 4.18-0.746 5.522-2.24 1.493-1.493 1.94-3.433 1.94-5.075 0-0.448 0-1.045-0.15-1.343h-7.313zm13.282-1.8c-2.836 0-5.075 2.1-5.075 5.075s2.24 5.075 5.075 5.075a5.03 5.03 0 0 0 5.075-5.075c0-2.985-2.24-5.075-5.075-5.075zm0 8.2c-1.493 0-2.836-1.343-2.836-3.134s1.343-3.124 2.836-3.124 2.837 1.2 2.837 3.13-1.343 3.134-2.836 3.134zm24.47-7.156c-0.597-0.597-1.493-1.194-2.836-1.194-2.537 0-4.776 2.24-4.776 5.075s2.24 5.075 4.776 5.075c1.194 0 2.24-0.597 2.687-1.194h0.15v0.746c0 1.94-1.045 2.985-2.687 2.985-1.343 0-2.24-1.045-2.537-1.8l-1.94 0.746c0.597 1.343 2.1 2.985 4.478 2.985 2.687 0 4.925-1.493 4.925-5.373v-9.253h-2.1v1.194zm-2.537 7.164c-1.493 0-2.687-1.343-2.687-3.134s1.194-3.134 2.687-3.134 2.687 1.343 2.687 3.134-1.194 3.134-2.687 3.134zm-10.897-8.2c-2.836 0-5.075 2.1-5.075 5.075s2.24 5.075 5.075 5.075a5.03 5.03 0 0 0 5.075-5.075c0.15-2.985-2.24-5.075-5.075-5.075zm0 8.2c-1.493 0-2.836-1.343-2.836-3.134s1.343-3.134 2.836-3.134 2.836 1.194 2.836 3.134-1.343 3.134-2.836 3.134zm17.334-13.572h2.24v15.522h-2.24zm8.358 13.582c-1.194 0-1.94-0.597-2.537-1.493l6.866-2.836-0.3-0.597c-0.448-1.194-1.8-3.284-4.328-3.284-2.687 0-4.776 2.1-4.776 5.075a5.03 5.03 0 0 0 5.075 5.075c2.388 0 3.73-1.493 4.328-2.24l-1.8-1.194c-0.597 0.896-1.343 1.493-2.537 1.493zm-0.15-6.27c0.896 0 1.642 0.448 1.94 1.194l-4.627 1.94c0-2.24 1.493-3.134 2.687-3.134z"/>
    </g>
    <g transform="matrix(.19862 0 0 .19862 29.128 -18.088)">
     <path d="m130 29v132c0 14.77 10.2 23 21 23 10 0 21-7 21-23v-131c0-13.54-10-22-21-22s-21 9.33-21 21z" fill="#f9ab00"/>
     <g fill="#e37400">
      <path d="m75 96v65c0 14.77 10.2 23 21 23 10 0 21-7 21-23v-64c0-13.54-10-22-21-22s-21 9.33-21 21z"/>
      <circle cx="41" cy="163" r="21"/>
     </g>
    </g>
   </g>
  </g>
 </g>
</svg>
