<!--
Copyright 2023 ZORALab Enterprise <tech@zoralab.com>


Prestige Web Demo Proprietary License

Licensed under ZORALab Proprietary License (the “License”); you may ONLY use
this file except in compliance with the License. You may obtain a copy of the
License at:

        https://www.zoralab.com/docs/legal/zoralab-proprietary-license

All information contained herein is, and remains the property of ZORALab
Enterprise and its suppliers, if any. The intellectual and technical concepts
contained herein are proprietary to ZORALab Enterprise and its suppliers and
may be covered by Malaysia Patent Law, patents in process, and are protected by
trade secret or copyright law. Dissemination of this information or reproduction
of this material is strictly forbidden unless prior written permission is
obtained from ZORALab Enterprise.
-->
<svg width="1200" height="335.88" version="1.1" viewBox="0 0 1200 335.88" xmlns="http://www.w3.org/2000/svg">
 <style>
	#petal-1c {
		opacity: 0;
		animation: fadeIN 1s ease-in-out forwards;
	}

	#petal-2c {
		opacity: 0;
		animation: fadeIN 1s ease-in-out .2s forwards;
	}

	#petal-1l {
		opacity: 0;
		animation: fadeIN 1s ease-in-out .45s forwards;
	}

	#petal-1r {
		opacity: 0;
		animation: fadeIN 1s ease-in-out .45s forwards;
	}

	#petal-2l {
		opacity: 0;
		animation: fadeIN 1s ease-in-out .65s forwards;
	}

	#petal-2r {
		opacity: 0;
		animation: fadeIN 1s ease-in-out .65s forwards;
	}

	#petal-3l {
		opacity: 0;
		animation: fadeIN 1s ease-in-out .85s forwards;
	}

	#petal-3r {
		opacity: 0;
		animation: fadeIN 1s ease-in-out .85s forwards;
	}

	#wordart {
		opacity: 0;
		animation: fadeIN 1s ease-in-out 1.2s forwards;
	}

	@keyframes fadeIN {
		0% {
			opacity: 0;
		}
		100% {
			opacity: 1;
		}
	}
 </style>
 <g id="wordart" transform="matrix(.62369 0 0 .62369 931.26 -193.13)" style="font-variant-ligatures:none;stroke-width:1.2" aria-label="Prestige">
  <path d="m-685.93 584.9h36.16c28.8 0 43.84-2.24 56.96-8.32 22.4-10.88 35.2-31.36 35.2-56.64 0-24.32-11.2-42.88-32.32-53.44-12.48-6.4-32.32-9.92-54.4-9.92h-112v15.04h5.76c18.24 0.32 24.32 1.28 26.88 4.48 1.92 2.88 1.92 3.52 1.92 19.84v152.32c0 16.32 0 16.96-1.92 19.84-2.56 3.2-8.64 4.48-26.88 4.48h-5.76v15.04h107.52v-15.04h-8.32c-18.24 0-24.32-1.28-26.88-4.48-1.92-2.88-1.92-3.52-1.92-19.84zm0-15.04v-81.92c0-14.72 1.6-16.32 19.52-16.32h20.48c33.28 0 48.96 15.68 48.96 49.6 0 32.96-16.32 48.64-50.24 48.64z"/>
  <path d="m-488.49 538.5-56.64 3.52v13.76h13.12c12.16 0.32 13.76 2.24 13.76 16v91.52c-0.32 4.8-0.64 6.72-1.92 8.32-2.24 2.88-8.64 4.16-22.4 4.48h-1.28v11.52h85.44v-11.52h-5.76c-21.44-0.64-24.32-2.24-24.32-13.76v-17.28c0.32-53.76 19.52-94.72 44.48-96-4.48 5.12-5.76 8.32-5.76 14.4 0 10.24 7.36 17.6 17.6 17.6 11.84 0 19.52-8.64 19.52-21.44 0-15.68-10.88-25.92-27.84-25.92-20.16 0-37.44 16-48 44.48z"/>
  <path d="m-262.89 615.62c0.32-48-26.88-81.92-65.92-81.92-40.96 0-71.68 35.52-71.68 83.52 0 45.12 29.12 75.2 72.32 75.2 30.72 0 52.16-15.04 65.28-45.44l-11.2-6.08c-13.12 24.64-26.56 34.24-48 34.24-16.32 0-28.16-6.72-36.48-21.12-5.76-9.6-8.32-20.8-8-38.4zm-103.36-13.76c0-9.92 1.28-16.96 4.48-25.92 6.72-19.2 16.96-28.48 32.64-28.48 19.2 0 32 16.96 32 42.88 0 8.96-2.88 11.52-13.12 11.52z"/>
  <path d="m-128.17 534.98h-11.2l-9.28 11.52c-11.52-8.96-23.04-12.8-39.04-12.8-28.16 0-46.72 18.24-46.72 46.4 0 12.48 4.16 23.04 11.2 29.44 7.36 6.72 14.72 9.92 33.92 14.4l16.96 3.84c25.28 6.08 34.24 12.48 34.24 25.28 0 15.04-13.12 25.6-31.68 25.6-27.2 0-46.4-17.28-54.08-49.28h-12.8v60.48h11.2l11.2-13.12c13.12 10.56 27.52 15.68 43.84 15.68 31.36 0 52.16-19.52 52.16-49.28 0-14.08-4.48-24.96-13.44-32.32-7.68-6.72-14.08-9.28-33.6-13.44l-16-3.52c-17.6-3.84-17.6-3.84-23.36-7.04-7.04-3.2-11.2-9.92-11.2-16.96 0-13.12 12.16-22.08 29.76-22.08 12.16 0 22.08 4.16 31.04 12.8 7.04 7.04 10.56 13.44 15.68 28.16h11.2z"/>
  <path d="m-46.565 538.5v-63.36h-13.12c-3.2 41.6-17.28 62.72-43.2 64.64v12.48h26.24v81.6c0 22.4 0.64 30.4 3.84 37.76 5.12 13.44 17.92 20.8 36.48 20.8 28.8 0 47.36-21.76 47.36-55.68 0-1.92 0-4.16-0.32-7.36h-13.44c-0.96 28.8-9.28 43.52-24.96 43.52-7.36 0-13.76-3.84-16-9.28-1.92-4.48-2.88-12.48-2.88-24v-87.36h47.04v-13.76z"/>
  <path d="m81.755 538.5-60.16 3.52v13.76h16.32c12.16 0.32 13.76 2.24 13.76 16v91.52c-0.32 4.8-0.64 6.72-1.92 8.32-2.24 2.88-8.32 4.16-22.08 4.48h-2.24v11.52h82.88v-11.52h-2.24c-21.44-0.64-24.32-2.24-24.32-13.76v-14.08zm-15.04-79.68c-10.24 0-18.56 8.32-18.56 18.56s8.32 18.56 18.24 18.56c10.56 0 18.88-8.32 18.88-18.56s-8.32-18.56-18.56-18.56z"/>
  <path d="m176.47 663.94c-17.6-0.32-18.56-0.64-22.4-2.88-2.24-1.28-3.84-4.8-3.84-8.32 0-9.6 8.64-13.76 30.08-14.4 30.08-0.64 34.88-1.28 45.76-6.08 19.2-8.64 29.76-25.28 29.76-46.4 0-12.8-2.88-20.8-11.52-31.36 5.44-5.76 8.32-7.68 10.88-7.68 1.6 0 2.56 0.96 3.2 4.48 1.28 7.68 6.4 11.84 14.4 11.84 8.32 0 14.4-6.72 14.4-15.36 0-10.88-8.64-18.56-21.12-18.56-10.24 0-16 3.2-30.72 16.64-13.44-8.96-23.68-12.16-39.68-12.16-38.08 0-63.04 21.12-63.04 53.12 0 18.88 10.24 34.88 26.88 42.88-21.44 4.8-30.4 14.4-30.4 32 0 14.08 6.4 22.4 21.44 27.52-19.84 7.36-29.44 17.28-29.44 30.4 0 9.6 6.4 18.56 16.64 24 12.48 6.4 27.84 8.96 50.88 8.96 53.44 0 80-16.96 80-50.56 0-16-7.36-28.8-18.88-33.6-8.64-3.2-18.88-4.48-40.64-4.48zm18.88-116.48c19.84 0 31.04 13.76 31.04 38.72s-12.16 40-32.32 40c-19.84 0-32.32-15.04-32.32-39.04 0-25.28 12.16-39.68 33.6-39.68zm-2.88 144c26.56 0 28.48 0 32.96 0.64 13.12 1.28 20.8 8.32 20.8 18.56 0 18.24-20.8 28.8-56.32 28.8-27.2 0-42.24-8-42.24-22.4 0-10.56 5.76-17.6 21.12-25.6z"/>
  <path d="m430.87 615.62c0.32-48-26.88-81.92-65.92-81.92-40.96 0-71.68 35.52-71.68 83.52 0 45.12 29.12 75.2 72.32 75.2 30.72 0 52.16-15.04 65.28-45.44l-11.2-6.08c-13.12 24.64-26.56 34.24-48 34.24-16.32 0-28.16-6.72-36.48-21.12-5.76-9.6-8.32-20.8-8-38.4zm-103.36-13.76c0-9.92 1.28-16.96 4.48-25.92 6.72-19.2 16.96-28.48 32.64-28.48 19.2 0 32 16.96 32 42.88 0 8.96-2.88 11.52-13.12 11.52z"/>
 </g>
 <path id="petal-3l" transform="matrix(.81534 0 0 .81534 -540.42 57.587)" d="m907.1 230.93c-0.8968-0.1148-2.8706 0.75037-4.8772 2.1368-1.8542 1.2811-6.0052 4.8431-9.225 7.9147-3.2199 3.0716-8.6407 8.0001-12.044 10.952-3.404 2.9522-10.01 8.0263-14.682 11.276-4.671 3.249-12.387 8.1286-17.144 10.844-4.757 2.716-13.411 7.256-19.231 10.087-5.819 2.8314-13.434 6.3395-16.919 7.7973-3.4858 1.4578-8.3417 3.3062-10.792 4.1082-2.4499 0.8021-6.331 1.8202-8.6261 2.2613-3.0508 0.58578-4.9113 0.61734-6.9157 0.11499-1.5079-0.3779-3.0533-1.2486-3.4351-1.9332-0.38187-0.6845-0.71332-2.2737-0.73542-3.5333-0.0245-1.3988 1.0717-4.5891 2.8147-8.1949 1.5696-3.2473 4.7947-8.6146 7.1673-11.929 2.3727-3.3149 6.6376-8.8351 9.4765-12.265 2.8389-3.4297 5.0104-6.3792 4.8269-6.5564s-2.2191 0.42328-4.5227 1.3367-6.3997 2.8238-9.1028 4.2448-7.119 4.1117-9.8143 5.9791c-2.6949 1.8676-8.1308 6.7571-12.078 10.866-4.2356 4.4098-8.7891 9.9889-11.113 13.616-2.1652 3.3793-5.0364 8.4727-6.3816 11.319l-2.4458 5.1742 0.15092 8.6285c0.13819 7.9116 0.29816 8.9298 1.9284 12.236 0.9779 1.9834 2.8022 4.5664 4.0532 5.7396 1.2509 1.1732 3.6255 2.5438 5.2796 3.047 2.0908 0.63545 4.8192 0.79512 8.9519 0.51743 3.416-0.2295 9.3048-1.2986 13.843-2.5105 4.344-1.1601 11.448-3.4388 15.784-5.064 4.336-1.6253 12.456-5.3406 18.043-8.2572 5.586-2.9165 14.127-8.0104 18.979-11.321 4.852-3.3109 12.57-9.1433 17.149-12.96 4.58-3.816 11.731-10.322 15.892-14.457 4.1601-4.136 10.277-10.625 13.594-14.423 3.3173-3.798 8.405-9.9883 11.307-13.755 2.9017-3.7663 7.1128-9.5831 9.3591-12.926 3.5724-5.3165 4.016-6.3195 3.5381-7.9985-0.3686-1.295-1.0363-1.9827-2.0529-2.1128z"/>
 <path id="petal-3r" transform="matrix(.81534 0 0 .81534 -358.07 39.907)" d="m719.22 256.78c-0.33091 0.0323-0.57952 0.22687-0.87674 0.50544-0.6805 0.6379-1.5345 2.3424-1.8972 3.7896-0.47973 1.9139-0.43135 3.5063 0.17247 5.8426 0.4565 1.7666 1.9759 4.9214 3.3776 7.0092s4.4864 5.7984 6.8558 8.2452c2.3696 2.4468 7.3263 6.8334 11.014 9.7496 3.6879 2.9163 9.5671 7.2896 13.065 9.7185 3.498 2.429 9.6692 6.4784 13.714 8.9974 4.045 2.519 10.811 6.5759 15.036 9.0166 4.226 2.4407 11.889 6.7025 17.029 9.4693 5.14 2.766 16.734 8.5524 25.763 12.859 9.029 4.3069 20.728 9.5718 25.996 11.7 5.268 2.1277 12.342 4.7183 15.722 5.7563 3.3794 1.038 8.164 2.3004 10.631 2.8051h2e-3c2.7061 0.55363 6.8444 0.80064 10.432 0.62282 4.5384-0.22489 6.5913-0.64485 8.674-1.7726 1.501-0.8127 3.3508-2.385 4.1106-3.4926 0.7599-1.1075 1.6804-3.7925 2.0457-5.9671 0.54405-3.2396 0.44406-4.9828-0.55814-9.6514-0.6728-3.1335-2.3021-8.2403-3.6196-11.35-1.3174-3.1098-3.9623-8.3194-5.8785-11.575-1.9162-3.255-5.6417-8.8558-8.2788-12.447-2.6366-3.591-8.1411-9.782-12.231-13.757-4.2387-4.1191-9.0145-8.0813-11.105-9.213-2.0179-1.0922-4.94-2.1545-6.4917-2.3595-2.0585-0.27202-3.262-0.0728-4.4532 0.7378-1.0858 0.7389-1.6194 1.7164-1.593 2.9153 0.0218 0.9919 1.4411 5.62 3.1548 10.286 2.1729 5.9164 3.1362 9.5439 3.1788 11.989 0.052 2.9802-0.24142 3.8646-1.9523 5.8833-1.518 1.7912-3.1428 2.7397-6.6091 3.8591-3.8374 1.2391-5.7079 1.4482-11.316 1.2672-4.7743-0.1541-8.3518-0.71007-12.368-1.9236-3.1084-0.93909-8.7145-3.0838-12.456-4.7646-3.742-1.6807-11.697-5.5701-17.676-8.6429-5.98-3.0728-14.179-7.4724-18.22-9.7783-4.0416-2.3059-9.9047-5.8391-13.031-7.85-3.127-2.0109-9.3496-6.2884-13.827-9.5076-4.477-3.2198-11.973-8.954-16.658-12.742-6.1377-4.9622-7.8849-6.3274-8.8776-6.2306z"/>
 <path id="petal-2r" transform="matrix(.81534 0 0 .81534 -323.23 55.307)" d="m832.31 132.49c-2.8168-7e-3 -5.5191 0.0645-7.426 0.2156-3.814 0.3022-10.049 1.0413-13.858 1.6433-3.8082 0.602-9.443 1.7235-12.521 2.4937-3.0786 0.77027-8.2616 2.2225-11.517 3.2267-3.256 1.0042-9.9096 3.464-14.785 5.4641-4.875 2.0001-11.665 5.0072-15.092 6.6834-3.426 1.6762-10.061 5.2693-14.742 7.9865-4.681 2.7176-13.51 8.405-19.619 12.639-6.11 4.2331-14.481 10.432-18.606 13.774-4.1247 3.3424-9.2565 7.7312-11.402 9.752l-3.8998 3.6747 1.1858 2.3787c0.7923 1.5893 1.6347 2.373 2.5368 2.3572 0.7483-0.0131 4.9031-3.1165 9.3136-6.9565 4.379-3.8128 11.053-9.264 14.833-12.114 3.7799-2.85 9.7524-7.0618 13.273-9.3615 3.521-2.2997 9.6978-5.9834 13.726-8.183 4.029-2.1997 10.574-5.3914 14.545-7.093s10.625-4.1894 14.785-5.5288 11.416-3.1809 16.129-4.0915c6.688-1.2922 11.036-1.694 19.808-1.8397 7.331-0.12152 13.433 0.1497 17.547 0.78092 3.4686 0.5322 8.9945 1.695 12.279 2.5847 3.2848 0.8898 8.2181 2.4634 10.964 3.4974 2.7457 1.034 7.3962 3.2006 10.334 4.8125 2.9379 1.6119 6.1726 3.6816 7.1888 4.5993 1.3506 1.2196 1.8581 2.3003 1.8828 4.022 0.0208 1.3973-0.72723 3.7156-1.8373 5.6964-1.0292 1.8366-3.5359 5.3018-5.5719 7.7015-2.0361 2.3998-5.5581 6.0327-7.826 8.0728-2.2678 2.0401-6.6334 5.3513-9.7017 7.3589-3.068 2.0076-8.3421 4.8465-11.721 6.3073-3.3787 1.4608-9.0724 3.4469-12.651 4.4149-3.579 0.968-10.217 2.3142-14.751 2.992-6.303 0.94218-11.204 1.1976-20.812 1.0852-7.439-0.0871-16.354-0.64577-21.847-1.3702-5.104-0.6731-13.908-2.2042-19.566-3.4016s-15.636-3.8403-22.17-5.8737c-10.538-3.2791-12.151-3.6169-14.27-2.9896-1.3142 0.38899-2.785 0.97339-3.2698 1.2983-0.48475 0.325-0.76626 1.1395-0.62522 1.8086 0.1426 0.677 2.6235 2.6256 5.5958 4.3957 2.938 1.7494 9.6943 5.2545 15.012 7.7877 5.318 2.5332 13.377 5.9314 17.909 7.5529s12.17 3.8834 16.974 5.0257 12.005 2.4792 16.002 2.9728c3.9956 0.49337 8.4567 1.003 9.9149 1.1307 1.4584 0.12743 7.7039 0.0359 13.882-0.20362 6.179-0.2396 14.203-0.95019 17.83-1.5786 3.627-0.6284 9.9114-2.0898 13.968-3.2483 4.056-1.1585 10.5-3.3773 14.32-4.9299 3.819-1.5526 10.066-4.4925 13.879-6.5325 3.8135-2.04 9.4577-5.4172 12.545-7.5074 3.0877-2.0902 7.977-5.6438 10.863-7.8955 2.887-2.252 9.578-8.6001 14.871-14.107 5.2926-5.5066 10.361-10.308 11.264-10.669 0.90229-0.36123 2.3257-0.66811 3.162-0.68271 0.83639-0.0146 2.2938-0.65739 3.2387-1.4277 1.3792-1.1245 1.7072-1.9592 1.6672-4.2376-0.0322-1.8479-0.52517-3.4231-1.4157-4.5155-0.7522-0.9227-3.7002-3.4911-6.5492-5.7084-2.8492-2.2173-8.0867-5.8702-11.64-8.1159-3.553-2.2458-9.8608-5.6313-14.018-7.5242-4.1574-1.8929-10.401-4.3081-13.875-5.3659-3.4737-1.0579-9.1527-2.4556-12.619-3.1069-3.466-0.6514-10.175-1.449-14.909-1.7727-2.367-0.16184-5.2991-0.24687-8.1159-0.25392z"/>
 <path id="petal-2l" d="m68.449 162.13c-2.0233-3e-3 -4.1387 0.0136-6.3301 0.0508-7.4114 0.12564-16.744 0.58695-20.74 1.0254-3.9952 0.43841-11.258 1.4465-16.137 2.2383-4.879 0.79177-12.558 2.2729-17.062 3.293-4.5047 1.0201-8.1846 2.0908-8.1797 2.3789 5e-3 0.28806 0.93683 1.9947 2.0703 3.793 1.1335 1.7978 4.668 6.6207 7.8555 10.717 3.6079 4.636 8.8036 10.36 13.764 15.164 4.3824 4.2449 10.058 9.3235 12.613 11.285 2.5545 1.9616 7.5885 5.4593 11.188 7.7715 3.5989 2.3123 10.593 6.1287 15.541 8.4824 4.9483 2.3536 11.87 5.2433 15.385 6.4219 3.5144 1.1786 8.5051 2.7113 11.09 3.4062 2.5846 0.69491 7.6199 1.8046 11.189 2.4648 3.5696 0.66018 9.8942 1.5186 14.053 1.9082 4.1582 0.38949 9.26 0.76726 11.338 0.83984 2.0782 0.0725 7.654-0.0369 12.395-0.24414 4.7412-0.20718 11.888-0.7997 15.883-1.3164 3.9943-0.51668 10.429-1.5787 14.297-2.3613 3.8679-0.78273 9.7867-2.1902 13.154-3.127 3.3677-0.93674 7.8112-2.269 9.875-2.9609 3.2214-1.08 3.561-1.3076 2.3984-1.6094-0.7444-0.19334-5.3587-0.44932-10.254-0.56836-4.8952-0.11906-12.785-0.38518-17.533-0.5918-4.7485-0.2066-12.765-0.6722-17.812-1.0332-5.0477-0.36103-12.945-1.0743-17.551-1.5859-4.6058-0.51162-11.172-1.3654-14.592-1.8965-3.4195-0.53111-9.6266-1.6522-13.793-2.4922-4.1663-0.83996-11.202-2.6497-15.635-4.0215-4.4322-1.3718-10.56-3.6358-13.617-5.0312-3.0574-1.3954-7.3776-3.729-9.5996-5.1856-2.222-1.4567-5.4368-4.043-7.1445-5.7461-1.7076-1.7032-3.8848-4.2956-4.8379-5.7617-0.95305-1.4661-2.2364-4.1983-2.8516-6.0723-0.61521-1.874-1.1426-4.8709-1.1738-6.6582s0.22311-4.2519 0.56641-5.4785c0.35874-1.2817 1.5636-3.206 2.834-4.5234 1.6304-1.6908 3.133-2.595 5.7246-3.4453 1.9326-0.63409 5.2811-1.3445 7.4394-1.5781 2.1586-0.23365 6.5962-0.18986 9.8633 0.0976 3.2671 0.28757 8.9842 1.0883 12.703 1.7774 3.7188 0.68904 11.271 2.4672 16.783 3.9531 5.5117 1.486 13.926 4.0134 18.699 5.6152 4.773 1.6019 12.587 4.3759 17.363 6.166 4.7762 1.79 12.153 4.6637 16.395 6.3848 4.2414 1.7211 11.437 4.7651 15.988 6.7637 4.5517 1.9986 8.3599 3.5461 8.4629 3.4394 0.10306-0.10672-1.7325-1.9268-4.0781-4.043-2.3457-2.1158-7.2143-5.9702-10.818-8.5664-3.6046-2.5962-9.1772-6.2171-12.385-8.0469-3.2072-1.8297-7.7804-4.2653-10.164-5.4121-2.384-1.1467-6.4909-2.9378-9.125-3.9785-2.6343-1.0407-7.5959-2.7864-11.025-3.8809-3.4293-1.0944-9.0365-2.6486-12.461-3.4531-3.4244-0.80454-9.0122-1.9125-12.416-2.4629-3.404-0.55043-9.8468-1.3351-14.318-1.7422-3.9662-0.36118-9.2056-0.55236-15.275-0.5625zm129.33 83.998c-0.74994 0.30074-1.6095 0.7461-2.5254 1.3789-0.11747 0.0812-0.44513 0.3994-0.58398 0.50195 1.2123-0.48976 2.2611-1.126 3.1094-1.8809z" style="stroke-linecap:round;stroke-linejoin:round;stroke-width:26.106"/>
 <path id="petal-2c" d="m214.49 0.073036c-1.5455 0.026988-4.343 0.55677-6.2168 1.1777-1.8738 0.62088-4.5976 2.0696-6.0528 3.2188-1.4551 1.1491-3.781 3.5496-5.1679 5.334-1.3868 1.7844-3.5519 5.3355-4.8125 7.8906-1.2605 2.5553-3.0963 7.2069-4.0781 10.338-0.98175 3.1309-2.3577 8.4934-3.0586 11.916-0.70079 3.4228-1.6026 8.7131-2.0039 11.758-0.40139 3.0448-0.71497 6.4544-0.69532 7.5762 0.0196 1.1218 0.42348 2.5718 0.89646 3.2227v0.0016c0.47306 0.65083 1.2853 1.1751 1.8048 1.166 0.51929-9e-3 1.3108-0.32653 1.7598-0.70508 0.44892-0.37846 1.3208-1.4549 1.9375-2.3926 0.61672-0.93763 2.4273-4.8515 4.0234-8.6973 1.5962-3.8462 3.9787-9.1726 5.2949-11.838 1.4475-2.9314 3.6226-6.2063 5.502-8.2871 2.0184-2.2348 3.9338-3.7723 5.4668-4.3887 1.6166-0.64984 3.3436-0.8886 5.4824-0.75782 1.7173 0.10502 4.314 0.73679 5.7715 1.4043 1.4577 0.66752 4.1212 2.5288 5.9199 4.1367 1.7988 1.6079 4.205 4.2541 5.3457 5.8809 1.1407 1.627 3.6429 5.4783 5.5605 8.5586s4.3577 6.6782 5.4218 7.9941 2.5768 2.926 3.3614 3.5781c0.78444 0.65205 1.6378 1.183 1.8965 1.1797 0.25863-0.0033 0.19511-0.32442-0.14064-0.71485-0.33568-0.39038-0.99235-1.734-1.459-2.9863-0.46654-1.2524-1.7986-7.4702-2.959-13.816-1.6246-8.8843-2.607-12.795-4.2715-16.998-1.189-3.0028-3.0472-7.1423-4.1308-9.1992-1.0837-2.0569-3.1112-5.2307-4.5039-7.0527-1.3927-1.8219-3.7045-4.1455-5.1367-5.1641-1.4323-1.0184-3.8056-2.1964-5.2754-2.6172-1.4698-0.42074-3.9369-0.74378-5.4824-0.7168z" style="stroke-width:.81534"/>
 <path id="petal-1r" transform="matrix(.81534 0 0 .81534 -283.68 -7.7887)" d="m694.02 53.25c-1.5633 0.0352-4.1587 0.68848-5.7659 1.4517-1.7354 0.82409-5.1865 3.764-8.4992 7.2415-3.2757 3.439-7.5997 9.0301-10.475 13.546-2.6933 4.2294-6.3934 10.394-8.2213 13.7-1.8279 3.3049-5.7359 11.158-8.686 17.449-2.9502 6.2909-5.3513 12.22-5.3347 13.175 0.0167 0.9554 0.48636 1.9011 1.042 2.1032 0.5556 0.20215 1.8623-4e-3 2.9057-0.45754 1.0432-0.4537 4.3235-3.6733 7.2894-7.1553 2.966-3.482 7.0116-7.698 8.9902-9.3687 1.9785-1.6707 4.8965-3.6992 6.4822-4.5083 1.5857-0.80909 4.3288-1.6362 6.0965-1.8373 2.1391-0.2433 4.2444 9e-3 6.2977 0.75218 1.6967 0.61429 4.2948 2.17 5.7731 3.4567 1.4784 1.2867 3.543 4.0646 4.5873 6.1732 1.0443 2.1085 2.2956 5.954 2.7812 8.5471 0.55691 2.9751 0.78995 7.6451 0.63001 12.655-0.1395 4.3674-0.69116 10.776-1.2265 14.241-0.5353 3.4639-2.0402 10.78-3.3441 16.258-1.3038 5.479-3.9782 15.045-5.9432 21.257-1.965 6.213-5.548 16.395-7.9602 22.625-2.4122 6.2299-4.9653 13.034-5.6749 15.12-0.70973 2.0859-1.1052 4.2506-0.87914 4.8101 0.22596 0.55949 0.67125 1.0101 0.99173 1.0061 0.3204-6e-3 1.7841-0.91031 3.2507-2.0122 1.4665-1.1018 5.0407-4.8104 7.9434-8.2404 2.9032-3.4299 7.4111-9.5478 10.018-13.594 2.6069-4.0467 6.0453-10.032 7.6416-13.302s4.0208-8.9677 5.3874-12.66c1.3667-3.6921 3.1833-9.4028 4.0364-12.691 0.853-3.2886 1.9997-8.3682 2.5464-11.287 0.5466-2.9192 1.3588-8.7252 1.8062-12.902 0.44743-4.1769 0.71544-13.168 0.59647-19.981-0.1271-7.2729-0.6894-15.602-1.363-20.172-0.6309-4.282-1.9114-10.747-2.8458-14.368-0.9344-3.6205-2.677-9.1438-3.8735-12.274s-3.25-7.4081-4.561-9.5076c-1.3109-2.0996-3.1961-4.65-4.1897-5.6653-0.99349-1.0154-2.6168-2.2518-3.6076-2.7476-0.99079-0.49577-3.0791-0.87082-4.6424-0.83602z"/>
 <path id="petal-1l" transform="matrix(.81534 0 0 .81534 -875.19 -144.24)" d="m1253.2 234.21c-0.5127 0.01-0.9755 0.0496-1.3702 0.11978-1.4226 0.253-3.6666 1.036-4.9874 1.7391-1.3208 0.70309-3.9518 2.9763-5.8474 5.0521-1.9544 2.1402-4.2184 5.5722-5.2293 7.929-0.9805 2.2858-2.301 6.2487-2.9321 8.8058-0.9366 3.795-1.0988 7.0167-0.8935 17.54 0.1983 10.153 0.589 14.674 1.8421 21.281 0.8751 4.614 2.402 11.581 3.3944 15.482s3.2437 11.677 5.0018 17.281c1.758 5.603 4.8458 14.478 6.8606 19.72s4.9629 12.632 6.5517 16.423c1.5887 3.7909 4.3218 9.9927 6.0725 13.781 1.7506 3.7885 3.4981 7.1008 3.8831 7.3613 0.386 0.26012 1.3945 0.46753 2.2421 0.45754 0.8485-9e-3 1.4258-0.23753 1.284-0.50784-0.1417-0.2703-0.949-1.9404-1.7942-3.7106-0.8452-1.7701-2.7636-6.6469-4.2639-10.837-1.5004-4.19-3.8453-11.616-5.2102-16.502-1.3648-4.887-3.2842-13.048-4.264-18.136s-2.2134-13.548-2.7428-18.8c-0.5434-5.39-0.8372-12.86-0.6755-17.156 0.1576-4.1856 0.7103-10.446 1.2289-13.911 0.5186-3.4643 1.7512-8.9909 2.7404-12.282 0.9891-3.2907 2.8058-7.5286 4.0364-9.419 1.2306-1.8905 3.3351-4.1428 4.6759-5.0042 1.6416-1.0545 3.4542-1.585 5.5504-1.6217 2.1894-0.0383 4.4477 0.57471 7.608 2.0625 3.2843 1.5462 6.2568 3.797 11.043 8.365 3.6019 3.4375 8.2572 8.5024 10.346 11.254s4.6787 5.6086 5.7564 6.348c1.0776 0.73936 2.8969 1.3279 4.0411 1.3079 1.77-0.031 2.2248-0.40217 3.0495-2.4769 0.6298-1.5845 0.7994-3.257 0.4862-4.779-0.265-1.2882-1.1227-3.2341-1.9068-4.3238-0.7841-1.0898-3.9115-4.915-6.9492-8.4992-3.0374-3.5838-8.6581-9.5485-12.49-13.254-3.8318-3.7058-9.3866-8.5584-12.344-10.784-2.9573-2.2259-7.3319-5.0752-9.7209-6.3336-2.3888-1.2584-6.2585-2.7445-8.5998-3.301-1.2992-0.3091-2.6152-0.51751-3.804-0.61324-0.5943-0.0479-1.157-0.0675-1.6696-0.0575z"/>
 <path id="petal-1c" d="m225.57 75.176c-0.83809 0.0091-1.8392 0.20696-2.5547 0.52734-0.93829 0.42022-4.9314 4.1871-8.8731 8.3711-3.9418 4.1842-8.7725 9.6969-10.734 12.252-1.9619 2.5545-5.2295 7.2218-7.2617 10.371-2.0322 3.1496-5.2673 9.0432-7.1895 13.096-1.9222 4.0522-4.3512 10.101-5.3965 13.441-1.0452 3.3407-2.3327 8.341-2.8613 11.113-0.52856 2.7722-1.1292 7.9828-1.334 11.578-0.2184 3.8354-0.12538 9.3634 0.22461 13.377 0.32801 3.762 1.27 9.6176 2.0938 13.012 0.82374 3.3942 2.3928 8.6107 3.4863 11.592 1.0935 2.9808 3.491 8.3054 5.3262 11.832 1.8353 3.5271 5.1622 9.0484 7.3945 12.271 2.2324 3.223 5.5931 7.6112 7.4688 9.75 1.8758 2.1389 3.9333 4.089 4.5723 4.334h2e-3c0.63899 0.245 1.8289 0.45181 2.6445 0.45507 1.2765 7e-3 1.478-0.20422 1.4551-1.5176-0.0147-0.83915-0.60546-2.5885-1.3125-3.8867-0.70698-1.2985-3.0607-5.3759-5.2305-9.0606-2.1699-3.6845-5.247-9.4534-6.8398-12.82-1.5928-3.3674-4.001-9.2582-5.3516-13.09-1.3505-3.8321-3.0176-9.4761-3.7031-12.543-0.68546-3.0673-1.5004-8.3458-1.8125-11.73-0.312-3.3845-0.41214-8.6266-0.22069-11.65 0.19136-3.0238 0.71234-7.4153 1.1562-9.7578 0.44396-2.3425 1.397-5.9988 2.1191-8.125 0.72215-2.126 2.252-5.8209 3.3984-8.2109 1.1464-2.3905 3.272-6.1895 4.7246-8.4414 1.4525-2.2521 4.6886-6.2218 7.1894-8.8223 2.5009-2.6004 5.3855-5.2583 6.4121-5.9062 1.0267-0.64795 2.7587-1.1951 3.8477-1.2148 1.3412-0.0248 2.5186 0.40087 3.6484 1.3184 0.91726 0.74489 2.9339 3.3705 4.4824 5.8359 1.5486 2.4654 3.5928 6.1155 4.543 8.1094 0.9502 1.9938 2.4415 5.6092 3.3125 8.0352 0.87103 2.4256 2.0498 6.4076 2.6211 8.8496 0.75251 3.2164 1.0803 6.8166 1.1894 13.064 0.11026 6.3105-0.0907 9.8509-0.75 13.195-0.49549 2.5136-1.4661 6.4079-2.1562 8.6543-0.69018 2.2464-1.9651 5.8-2.834 7.8965-0.86891 2.0962-2.8501 6.0169-4.4023 8.7129-1.5523 2.6962-3.6698 6.1284-4.7051 7.627-1.5579 2.2546-1.8245 3.0447-1.5488 4.5742 0.18321 1.0166 0.70291 2.2047 1.1543 2.6406 0.65162 0.62925 1.0918 0.66339 2.1348 0.16602 0.72255-0.34465 3.0228-2.2956 5.1113-4.3359 2.0885-2.0401 5.3215-5.8126 7.1856-8.3809 1.864-2.5685 4.5264-6.9945 5.916-9.8359 1.3896-2.8413 3.0307-6.7352 3.6465-8.6543 0.61582-1.9192 1.5436-5.4549 2.0625-7.8555 0.51888-2.4005 1.1832-7.0375 1.4746-10.305 0.30571-3.4277 0.34436-8.8202 0.0918-12.75-0.24077-3.7457-0.87589-9.315-1.4102-12.377-0.53421-3.0623-1.5836-8.0011-2.334-10.977-0.75043-2.9752-2.3031-8.1659-3.4492-11.533-1.1461-3.3673-3.2095-8.7553-4.5859-11.975-1.3765-3.2189-3.8872-8.5144-5.5781-11.766-1.691-3.2512-3.5692-6.4212-4.1738-7.0449-0.60465-0.6238-1.8286-1.2678-2.7188-1.4297-0.22634-0.04117-0.48821-0.05967-0.76758-0.05664z" style="stroke-width:.81534"/>
</svg>
